<svg xmlns="http://www.w3.org/2000/svg" xmlns:xlink="http://www.w3.org/1999/xlink" width="192" height="148" viewBox="0 0 192 148">
  <defs>
    <clipPath id="clip-DBS">
      <rect width="192" height="148"/>
    </clipPath>
  </defs>
  <g id="DBS" clip-path="url(#clip-DBS)">
    <g id="DBS_Logo_SVG_3_" data-name="DBS Logo SVG (3)" transform="translate(18.877 39.533)">
      <path id="Path_37678" data-name="Path 37678" d="M40.9,21.636h0L32.038,29a4.337,4.337,0,0,1-2.59,1.227A4.337,4.337,0,0,1,26.859,29L18,21.5h0l7.36,9a4.337,4.337,0,0,1,1.227,2.59,4.337,4.337,0,0,1-1.227,2.59L18,44.533h0l8.859-7.5a4.337,4.337,0,0,1,2.59-1.227,4.337,4.337,0,0,1,2.59,1.227l8.859,7.5h0l-7.5-8.859a4.337,4.337,0,0,1-1.227-2.59A4.337,4.337,0,0,1,33.4,30.5Z" transform="translate(1.754 1.827)" fill="none"/>
      <path id="Path_37679" data-name="Path 37679" d="M56.24,18.936s-1.5-.136-2.726-.136c-1.363,0-1.635,0-1.772,1.363-.136,2.726-.273,24.124,0,27.258,0,.409.136,1.5,1.772,1.636a19.193,19.193,0,0,0,8.177-.818c3-1.09,6.815-6.269,6.133-14.583C67.279,25.887,64.281,19.618,56.24,18.936Z" transform="translate(13.943 0.847)" fill="none"/>
      <path id="Path_37680" data-name="Path 37680" d="M77.39,33.247c-.136,0,0-.273,0-.273,1.772,0,8.586-.818,8.314-7.5-.273-6.406-5.179-6.542-6.815-6.678H76.572c-1.09,0-1.227.136-1.227,1.227,0,.136-.273,11.585-.409,19.626,0,4.361-.136,7.769-.136,7.769,0,.818,0,1.636,1.908,1.772a24.717,24.717,0,0,0,6.406-.273c1.635-.409,4.5-1.635,4.634-6.542C87.748,35.428,82.7,33.519,77.39,33.247Z" transform="translate(22.368 0.847)" fill="none"/>
      <path id="Path_37681" data-name="Path 37681" d="M48.648,21.828a3.189,3.189,0,0,0-3.952-.545,3.189,3.189,0,0,0-.545-3.952c-1.908-1.635-3.407-.545-4.5,0a16.942,16.942,0,0,1-8.314,1.908,16.942,16.942,0,0,1-8.314-1.908c-1.09-.545-2.726-1.635-4.5,0a3.2,3.2,0,0,0-.545,3.952,3.189,3.189,0,0,0-3.952.545c-1.635,1.908-.545,3.544,0,4.634a17.408,17.408,0,0,1,1.908,8.45,17.408,17.408,0,0,1-1.908,8.45c-.545,1.09-1.635,2.726,0,4.634a3.189,3.189,0,0,0,3.952.545,3.189,3.189,0,0,0,.545,3.952c1.908,1.635,3.407.545,4.5,0a16.942,16.942,0,0,1,8.314-1.908,16.942,16.942,0,0,1,8.314,1.908c1.09.545,2.726,1.635,4.5,0a3.189,3.189,0,0,0,.545-3.952A3.189,3.189,0,0,0,48.648,48c1.635-1.908.545-3.544,0-4.634a17.408,17.408,0,0,1-1.908-8.45,17.408,17.408,0,0,1,1.908-8.45C49.193,25.371,50.284,23.736,48.648,21.828ZM35.292,37.5l7.5,8.859h0l-9-7.36a4.337,4.337,0,0,0-2.59-1.227A4.337,4.337,0,0,0,28.613,39l-8.859,7.5h0l7.36-8.859a4.337,4.337,0,0,0,1.227-2.59,4.337,4.337,0,0,0-1.227-2.59l-7.36-9h0l8.859,7.5a4.337,4.337,0,0,0,2.59,1.227,4.337,4.337,0,0,0,2.59-1.227l8.859-7.5h0l-7.5,9a4.337,4.337,0,0,0-1.227,2.59A5.106,5.106,0,0,0,35.292,37.5Z" fill="#f33"/>
      <path id="Path_37682" data-name="Path 37682" d="M87.89,33.267c.409-.273,6.815-2.726,6.269-8.45C93.478,17.457,85.709,18,82.983,18H68.809v.273c1.5.136,2.181.954,2.181,3.68l-.136,25.078c0,2.453-1.09,3.135-2.453,3.407v.409H87.208c2.453,0,8.586-.818,8.859-8.041C96.34,41.036,95.795,35.175,87.89,33.267ZM85.3,49.349a32.667,32.667,0,0,1-6.406.273c-1.908-.136-1.908-.954-1.908-1.772,0,0,0-3.407.136-7.769.136-8.041.409-19.49.409-19.626,0-1.09.273-1.227,1.227-1.227h2.317c1.772,0,6.542.136,6.815,6.678s-6.542,7.36-8.314,7.5c-.136,0-.136.273,0,.273,5.315.273,10.494,2.181,10.222,9.268C89.8,47.714,87.072,48.941,85.3,49.349Z" transform="translate(20.045 0.554)"/>
      <path id="Path_37683" data-name="Path 37683" d="M103.481,31.158c-4.634-1.09-7.769-2.044-7.769-6,0-3,2.317-6.269,7.769-6,4.5.273,6.815,2.453,7.36,4.906h.409l-.136-5.861h-.273a1.881,1.881,0,0,1-.545.409,2.493,2.493,0,0,1-1.5,0,31.954,31.954,0,0,0-7.9-.818c-4.906.136-10.358,1.772-11.176,8.314a8.152,8.152,0,0,0,3,7.223c3,2.59,9.132,3.407,11.449,4.361a5.317,5.317,0,0,1,2.862,5.588c-.409,4.77-3.952,6.542-8.178,6.542a9.675,9.675,0,0,1-7.087-2.59A3.924,3.924,0,0,1,90.4,44.379h-.409v6.269H90.4c.273-.681.545-.954,1.363-.681a38.859,38.859,0,0,0,7.769,1.363c7.769.273,13.357-2.862,13.765-9.268C113.839,32.794,105.661,31.7,103.481,31.158Z" transform="translate(27.76 0.482)"/>
      <path id="Path_37684" data-name="Path 37684" d="M60.837,18H45.573v.409a2.2,2.2,0,0,1,2.044,2.044c.273,3.68.409,26.168-.136,28.621-.136.681-1.227,1.227-2.181,1.363v.409H62.336c6.678,0,14.038-6.269,14.038-16.491C76.647,22.635,67.652,17.864,60.837,18Zm3.135,30.666a19.7,19.7,0,0,1-8.177.818c-1.772-.136-1.772-1.227-1.772-1.636-.136-3.135-.136-24.532,0-27.258.136-1.5.409-1.363,1.772-1.363,1.227,0,2.726.136,2.726.136,8.041.545,11.04,6.815,11.585,14.856C70.787,42.261,66.97,47.576,63.972,48.666Z" transform="translate(11.662 0.556)"/>
    </g>
  </g>
</svg>
