<svg xmlns="http://www.w3.org/2000/svg" xmlns:xlink="http://www.w3.org/1999/xlink" width="192" height="148" viewBox="0 0 192 148">
  <defs>
    <clipPath id="clip-Fiserv">
      <rect width="192" height="148"/>
    </clipPath>
  </defs>
  <g id="Fiserv" clip-path="url(#clip-Fiserv)">
    <g id="layer1" transform="translate(28.798 40.418)">
      <g id="g2999" transform="translate(127.792 18.417)">
        <g id="g3001">
          <g id="g3007">
            <path id="path3009" d="M228.851,33.729a.856.856,0,1,1-.856-.856.841.841,0,0,1,.856.856m.163,0a1.022,1.022,0,1,0-1.019,1.019,1,1,0,0,0,1.019-1.019m-.557-.242a.327.327,0,0,0-.366-.338h-.49v1.115h.191V33.83h.214l.22.434h.225l-.225-.45a.319.319,0,0,0,.231-.332m-.186.011c0,.107-.079.158-.18.158H227.8v-.321h.293a.159.159,0,0,1,.18.163" transform="translate(-226.97 -32.71)" fill="#f60"/>
          </g>
        </g>
      </g>
      <path id="path3011" d="M232.508,103.79h-8.6v8.6h8.6Z" transform="translate(-97.841 -45.353)" fill="#f60"/>
      <g id="g3013" transform="translate(100.654 20.157)">
        <path id="path3015" d="M186.743,35.8l5.124,38.427L196.979,35.8h7.978L197.5,82.684H186.151L178.77,35.8h7.973Z" transform="translate(-178.77 -35.8)" fill="#f60"/>
      </g>
      <g id="g3017">
        <g id="g3019">
          <g id="g3025">
            <path id="path3027" d="M4.425,20.157H0v6.227H4.425V67.035H12.2V26.384h5.461V20.157H12.2V10.624a4.531,4.531,0,0,1,.957-3.181,4.05,4.05,0,0,1,3.1-1.064h1.4V0H14.847C11.39,0,8.063.732,6.481,2.235S4.425,6.075,4.425,9.4V20.151h0Z" fill="#f60"/>
          </g>
        </g>
      </g>
      <path id="path3029" d="M35.68,82.674h7.792V35.79H35.68Z" transform="translate(-15.591 -15.639)" fill="#f60"/>
      <g id="g3031" transform="translate(30.759 19.61)">
        <g id="g3033">
          <g id="g3039" transform="translate(25.286)">
            <path id="path3041" d="M107.366,61.467h16.249V47.02c-.017-8.643-4.172-12.19-12.049-12.19S99.54,38.366,99.54,47.076V70.819c.023,7.922,4.82,12.021,12.021,12.021s12.032-3.373,12.049-12.021V67.064h-7.528l.011,4.448c0,3.176-1.188,5.366-4.375,5.366s-4.352-2.213-4.352-5.371V61.462h0Zm0-16c0-2.646.687-5.383,4.335-5.383s4.38,2.7,4.38,5.383v9.69h-8.71V45.471h0Z" transform="translate(-99.54 -34.83)" fill="#f60"/>
          </g>
          <g id="g3043" transform="translate(0 0.011)">
            <path id="path3045" d="M69.28,55.615c-5.912-5.135-6.374-5.878-6.374-9.707,0-3.26.282-5.242,3.209-5.242s3.305,1.959,3.305,5.281v4.33h7.511v-7.06c-.023-5.546-4.29-8.367-10.99-8.367s-10.889,2.2-10.929,11.058v.923c.011,2.787.023,7.207,6.914,13.113L63.9,61.634c5.079,4.285,5.63,4.8,5.608,9.893,0,3.136-.2,5.518-3.491,5.518s-3.5-2.4-3.5-3.879v-6H54.63v6.188c0,7.618,4.955,9.5,11.379,9.5s11.39-1.9,11.39-11.7v-.816c-.017-6.846-1.256-8.682-8.125-14.735" transform="translate(-54.63 -34.85)" fill="#f60"/>
          </g>
          <g id="g3047" transform="translate(52.689 0.006)">
            <path id="path3049" d="M155.316,40.206V35.381H148.21V82.259h7.663V49.586c0-2.522.822-4.189,2.252-5.169a9.01,9.01,0,0,1,5.152-1.284V34.84c-4.065.084-5.822.89-7.882,5.2Z" transform="translate(-148.21 -34.84)" fill="#f60"/>
          </g>
        </g>
      </g>
    </g>
  </g>
</svg>
