<svg xmlns="http://www.w3.org/2000/svg" xmlns:xlink="http://www.w3.org/1999/xlink" width="192" height="148" viewBox="0 0 192 148">
  <defs>
    <clipPath id="clip-Generali">
      <rect width="192" height="148"/>
    </clipPath>
  </defs>
  <g id="Generali" clip-path="url(#clip-Generali)">
    <g id="Layer" transform="translate(46.783 34.066)">
      <path id="Layer-2" data-name="Layer" d="M232.012,1029.542v-6.676c4.163,0,5.7-.221,6.461,4.923h.435V1022.1H227.415v.766h1.974v14.774H227.2v.766h11.819v-6.02h-.546c-.552,4.6-1.753,5.254-5.039,5.254H231.9v-7.111h.877c1.422,0,2.3.87,2.63,3.39h.546v-7.443h-.546s-.11,3.176-2.63,3.176h-.766Z" transform="translate(-212.896 -958.565)" fill="#c5281c"/>
      <path id="Layer-3" data-name="Layer" d="M14.414,1023.1H7.953v.766h2.189v5.248c-.325,1.318-2.4,1.864-2.955,1.864-4.156,0-3.832-6.02-3.832-7.663,0-1.422-.11-7.657,3.832-7.657,2.845,0,4.273,2.734,4.819,5.254h.435V1015a20.316,20.316,0,0,1-1.968,1.312S9.6,1015,7.076,1015c-4.812,0-6.676,4.813-6.676,8.209,0,3.059,1.422,8.423,6.676,8.423a4.153,4.153,0,0,0,3.4-1.753l2.078,1.643v-7.767H14.3v-.656Z" transform="translate(0 -951.9)" fill="#c5281c"/>
      <path id="Layer-4" data-name="Layer" d="M918.521,1025.612v6.02H903.746v-.766H905.6c-.11,0-1.747-4.377-1.747-4.377h-5.475a12.752,12.752,0,0,0-.987,3.39c.11.987,1.533.987,1.753.987v.766h-3.942c-6.345,0-.656-7.442-5.474-7.878H887v7.111h2.078v.766H882.4v-.766h2.078v-14.774H882.4v-.766h8.1c2.851.11,4.6,1.318,4.6,3.832,0,3.5-3.721,4.267-3.721,4.267a5.265,5.265,0,0,1,2.3.987,5.683,5.683,0,0,1,.766,3.169v2.851c0,.215-.11.546.656.546.877-.221,1.208-1.422,1.208-1.422,0-.11,5.033-14.554,5.033-14.554h.877l6.02,15.976h1.637V1016.2h-2.078v-.766h6.786v.766H912.5v14.664h.221c3.28,0,4.487-.656,5.033-5.254Zm-26.048-6.124c0-.656-.11-2.955-2.084-3.286H887v6.786h2.63C891.706,1022.988,892.472,1021.235,892.472,1019.487Zm11.274,6.345-2.52-7-2.409,7Z" transform="translate(-827.93 -951.9)" fill="#c5281c" fill-rule="evenodd"/>
      <path id="Layer-5" data-name="Layer" d="M455.362,1021.067c4.156,0,5.8-.215,6.455,4.929h.441v-5.7H445.621v.766h.435c.552,0,1.974,0,2.084,1.312v9.417l-7.773-11.495H436.1v.766h.656c.877,0,1.968,0,2.078,1.312v12.04c0,1.2-1.753,1.643-2.52,1.643v.546h5.806v-.546c-.766,0-2.52-.442-2.52-1.643v-10.612c3.065,4.377,8.865,12.8,8.975,12.8h.331v-14.229c.1-1.2,1.422-1.312,2.078-1.312h1.857v14.774h-2.189v.766h11.819v-6.02h-.546c-.546,4.6-1.747,5.254-5.033,5.254h-1.533v-7.111h.877c1.422,0,2.3.876,2.624,3.39h.552v-7.443h-.552s-.11,3.176-2.624,3.176h-.766v-6.786Z" transform="translate(-408.99 -956.875)" fill="#c5281c"/>
      <path id="Layer-6" data-name="Layer" d="M1488.976,1021.177v-.877H1482.3v.877h2.078v14.664H1482.3v.766h6.676v-.766h-2.189v-14.664Z" transform="translate(-1391.053 -956.875)" fill="#c5281c"/>
      <path id="Layer-7" data-name="Layer" d="M83.683,53.469h17.729V58.5H4V33.116l5.474-1.533c-.877-1.422-1.208-3.28-.441-4.377a4.386,4.386,0,0,1,3.611-1.858,1.84,1.84,0,0,1,.441-.546,3.367,3.367,0,0,1,2.52-.877,8.2,8.2,0,0,1,4.812,2.3l2.3-3.507-.546-.435-.11-.11a1.837,1.837,0,0,1-.546-1.312c0-.656.656-1.422,2.078-1.533l1.968-.221c.987,0,2.3-.546,2.3-1.637a.744.744,0,0,0-.766-.766,6.2,6.2,0,0,0-1.643.871,4.516,4.516,0,0,1-2.734,1.1,2.371,2.371,0,0,1-2.52-2.3,2.088,2.088,0,0,1,.331-1.091,2.536,2.536,0,0,1-.656-1.318A2.776,2.776,0,0,1,20.528,12a16.237,16.237,0,0,0,2.189-3.5v-.11l.546-1.091a1.841,1.841,0,0,1,.656-.656,13.376,13.376,0,0,1,1.643-2.63,9.207,9.207,0,0,1,1.974-1.747,8.516,8.516,0,0,1,2.3-.987A10.381,10.381,0,0,1,38.042,2.7a10.753,10.753,0,0,1,4.267,5.468v-.1A7.419,7.419,0,0,1,49.316,2.7h48.81l-.546.987a8.443,8.443,0,0,1-8.209,5.248h-.546a8.46,8.46,0,0,1-7.994,4.929,8.18,8.18,0,0,1-7.988,4.923H58.4a4.052,4.052,0,0,1,.11,1.2,3.019,3.019,0,0,1-.11.987c1.1.11,2.409.221,3.832.325,2.084.221,4.163.331,5.143.441a6.239,6.239,0,0,0,1.428.11,46.392,46.392,0,0,1,6.566.656,14.934,14.934,0,0,1,8.865,4.923,20.753,20.753,0,0,1,2.409,3.39c.766,1.422,1.533,2.845,2.189,4.377v.11c.221.435.325.877.546,1.312l.221.552c1.091,2.845,1.968,5.137,2.845,6.891A4.288,4.288,0,0,1,97.8,45.371c.221.331.325.656.546.987a8.967,8.967,0,0,0,1.533,2.189l1.2,1.312-1.637.331a12.89,12.89,0,0,1-1.864.215c-4.267,0-6.455-3.936-8.644-9.625v7.878c.215,1.968-.221,2.734-3.176,3.936l-2.078.766Zm10.066-7.547a4.794,4.794,0,0,0,3.721,2.513,8.687,8.687,0,0,0-.656-1.091,6.436,6.436,0,0,1-.546-.877A2.116,2.116,0,0,0,93.749,45.923ZM78.43,53.255l6.676-2.74a7.778,7.778,0,0,0,1.858-.981V35.746a27.138,27.138,0,0,0-1.533-3.176c-7.878-.987-9.956-1.858-14.008-8.423-.766,0-1.643-.11-2.52-.11a7.143,7.143,0,0,0-1.533-.11c-1.091-.11-3.059-.221-5.254-.435-1.858-.11-3.721-.221-4.812-.331a4.884,4.884,0,0,1-3.176,1.312,7.674,7.674,0,0,1-3.065-.877c-.325-.1-.546-.215-.877-.325l1.533-1.422c.331.11.552.215.877.325a3.282,3.282,0,0,0,1.533.441,2.341,2.341,0,0,0,2.409-2.3c0-.766-.11-1.1-.221-1.2H49.641l.987-1.974h6.345a6.191,6.191,0,0,0,5.7-2.845h-10.4l.981-1.968H64.967a6.447,6.447,0,0,0,5.8-2.955H54.57l.981-1.968H73.39a6.431,6.431,0,0,0,5.585-2.63H49.206a5.33,5.33,0,0,0-5.039,3.942l-1.637,6.02c-.441,1.747-.987,3.39-1.318,4.377a4.591,4.591,0,0,1,2.52,4.377,6.064,6.064,0,0,1-3.611,5.358,4.056,4.056,0,0,1,.656,2.3,4.351,4.351,0,0,1-3.721,4.267,9.093,9.093,0,0,1-.987,2.078v8.644a2.307,2.307,0,0,1-2.3,2.3h-.325a3.032,3.032,0,0,0-2.409.987q-.821,1.146,0,3.611a3.921,3.921,0,0,0,3.942-1.208l.325-.435h.546c1.428,0,3.065,0,3.617-.546.11-.11.325-.331.325-1.422a2.437,2.437,0,0,1,1.1-1.968c-1.208-3.065.11-7.988.215-8.54l.221-.766h.766a24.4,24.4,0,0,0,9.962-1.637c.766-.221,1.533-.552,2.409-.766a24.313,24.313,0,0,1,6.455-1.208,10.136,10.136,0,0,1,5.254,1.643l.11.11c2.409,1.533,4.6,2.955,14.229,3.721a3.1,3.1,0,0,1,3.065,2.734v.11l.435,4.812-5.364,1.208a1.417,1.417,0,0,0-1.091.981,3.85,3.85,0,0,0,.877,3.4Zm0-38.959H64.967a9.139,9.139,0,0,1-2.084,2.845h9.962C75.475,17.14,77.332,16.264,78.43,14.3Zm7.988-4.923H72.955a8.674,8.674,0,0,1-2.189,2.955h9.962c2.734,0,4.592-.987,5.689-2.955ZM79.306,7.405h9.956a6.431,6.431,0,0,0,5.585-2.63H81.495A10.176,10.176,0,0,1,79.306,7.405ZM27.118,5.3a8.534,8.534,0,0,1,1.508-.08c.441,0,.877.11,1.312.11l3.617-2.189a7.693,7.693,0,0,0-3.176,0,4.276,4.276,0,0,0-1.753.76A8.59,8.59,0,0,0,27.2,5.217.875.875,0,0,1,27.118,5.3Zm-.135.031c.074,0,.1,0,.135-.031Q27.05,5.309,26.983,5.327ZM23.151,21.082a7.051,7.051,0,0,0,2.3.435h.11c2.74.11,6.02-1.422,6.02-3.832a17.486,17.486,0,0,0-.325-2.293,8.612,8.612,0,0,1-.221-1.533,2.879,2.879,0,0,1,2.189-2.63l-.435-2.293.656-.331A4.315,4.315,0,0,0,35.633,4.45a.385.385,0,0,1-.11-.221L30.49,7.295h-.331a6.678,6.678,0,0,0-1.422-.11c-2.3,0-3.5.877-3.721,1.2l-.221.331c-.656,2.189,1.753,1.2,2.3,1.643s-.435,1.312-.435,1.312c-.221.215-.441.546-.877.546s-.766-.221-.766-.546a.864.864,0,0,0-.877-.877c-.435,0-.546.221-.877.656A8.183,8.183,0,0,1,21.95,13.2c0,.11-.11.215-.11.325s.331.441.546.546l.987.662-1.091,1.526v.11a.483.483,0,0,0,.435.331,3.88,3.88,0,0,0,1.533-.766,5.829,5.829,0,0,1,2.734-1.2,2.8,2.8,0,0,1,2.52,2.949c-.221,2.189-2.409,3.065-4.487,3.176l-1.753-.11a.232.232,0,0,0-.215.221c0,.11,0,.221.1.11ZM11.442,31.148l4.052-1.1,11.488,3.065V35.09a5.365,5.365,0,0,0,2.63-1.208l1.643-1.643.1,2.3v3.611c2.63-.325,3.4-1.533,4.163-3.936l.221-.656h.766a2.335,2.335,0,0,0,2.4-2.3,2.436,2.436,0,0,0-1.091-1.968l-2.078-1.428,2.513-.435a4.3,4.3,0,0,0,3.611-3.936c0-1.753-.871-2.3-2.189-3.065l-.766-.441.331-.766a43.612,43.612,0,0,0,1.422-4.481l.11-.441a9.329,9.329,0,0,0,.325-2.845,9.037,9.037,0,0,0-3.28-6.345,6.334,6.334,0,0,1-2.63,5.143l.552,3.065H34.536c-.766,0-1.312.435-1.312.871a9.8,9.8,0,0,0,.221,1.208,17.021,17.021,0,0,1,.325,2.624v.11c0,3.5-3.832,5.689-7.553,5.689h-.11a8.827,8.827,0,0,1-1.526-.11l-2.63,4.156a3.174,3.174,0,0,1,.435.662.384.384,0,0,0,.11.215l.11.11c.11.221.331.546.441.766v.11a17.293,17.293,0,0,1-1.208,1.753c0-.11-.656-.987-.656-1.1a1.587,1.587,0,0,0-.221-.331c-.1-.1-.1-.215-.215-.325a9.228,9.228,0,0,0-1.208-1.643A6.049,6.049,0,0,0,15.6,25.895a1.63,1.63,0,0,0-1.1.331,2.354,2.354,0,0,0-.331.546l-.325.766-.877-.11a2.522,2.522,0,0,0-2.409.987,3.177,3.177,0,0,0,.877,2.734ZM23.918,53.359,15.6,51.17,7.286,53.359Zm1.091-18.71-9.521-2.513L5.968,34.649V51.612l9.521-2.52,9.521,2.52Zm8.54,11.924h.325a.29.29,0,0,0,.331-.325V39.461a10.8,10.8,0,0,1-4.163.766h-1.2l.221-1.2c0-.221.11-.331.11-.546a12.786,12.786,0,0,0,.215-1.974,8.806,8.806,0,0,1-2.3.656v16.2h2.084c-.662-2.078-.552-3.832.325-5.033a4.369,4.369,0,0,1,4.052-1.753Zm21.892.656,3.28.662L60.694,45.7c.766-.766.766-1.208.325-1.753v-.11l-4.046-6.676c-1.1.331-1.974.552-1.974.552a19.816,19.816,0,0,1-2.3.766,29.947,29.947,0,0,1-9.741,1.747h-.11c-.325,1.968-.871,5.474.221,7.111l.656.987-1.091.435c-.656.331-.766.552-.766.656a4.173,4.173,0,0,1-.877,2.851,4.57,4.57,0,0,1-2.955,1.091H50.4a5.132,5.132,0,0,1,.987-4.6,4.8,4.8,0,0,1,4.052-1.533Zm-2.961,6.241h7.884l6.9-7.332c.877-.987.656-1.753.546-1.968A40.7,40.7,0,0,0,65.838,39.9c-.331-.877-.766-1.643-.987-2.189a8.7,8.7,0,0,0-3.832-1.1,9.394,9.394,0,0,0-1.753.11l3.617,5.91a3.3,3.3,0,0,1-.441,4.267l-2.734,2.955h-.656L55.22,49.2a2.807,2.807,0,0,0-2.3.877,3.6,3.6,0,0,0-.441,3.28Zm23.1-4.377A3.361,3.361,0,0,1,78.2,46.9l3.611-.766-.325-2.955c-.11-.766-.331-.981-1.208-1.091-6.891-.552-10.287-1.533-12.475-2.52a42.264,42.264,0,0,1,1.753,3.942,3.682,3.682,0,0,1-.987,3.936l-5.585,5.91H76.124a5.421,5.421,0,0,1-.546-4.267ZM73.936,24.583c2.955,4.487,4.812,5.254,10.066,5.91a17.583,17.583,0,0,0-1.2-1.533A12.953,12.953,0,0,0,75.137,24.8,4.859,4.859,0,0,0,73.936,24.583Z" transform="translate(-3.379 0)" fill="#c5281c" fill-rule="evenodd"/>
      <path id="Layer-8" data-name="Layer" d="M215.651,568.637,209.3,567v2.078l6.351,1.643Z" transform="translate(-196.094 -531.364)" fill="#c5281c"/>
      <path id="Layer-9" data-name="Layer" d="M71.8,570.721l6.351-1.643V567L71.8,568.637Z" transform="translate(-67.023 -531.364)" fill="#c5281c"/>
      <path id="Layer-10" data-name="Layer" d="M71.8,638.521l6.351-1.643V634.8L71.8,636.443Z" transform="translate(-67.023 -595.008)" fill="#c5281c"/>
      <path id="Layer-11" data-name="Layer" d="M215.651,636.443,209.3,634.8v2.078l6.351,1.643Z" transform="translate(-196.094 -595.008)" fill="#c5281c"/>
      <path id="Layer-12" data-name="Layer" d="M215.651,704.243,209.3,702.6v2.078l6.351,1.643Z" transform="translate(-196.094 -658.651)" fill="#c5281c"/>
      <path id="Layer-13" data-name="Layer" d="M71.8,706.321l6.351-1.643V702.6L71.8,704.243Z" transform="translate(-67.023 -658.651)" fill="#c5281c"/>
    </g>
  </g>
</svg>
