<svg xmlns="http://www.w3.org/2000/svg" xmlns:xlink="http://www.w3.org/1999/xlink" width="192" height="148" viewBox="0 0 192 148">
  <defs>
    <clipPath id="clip-M_T_Bank">
      <rect width="192" height="148"/>
    </clipPath>
  </defs>
  <g id="M_T_Bank" data-name="M&amp;T Bank" clip-path="url(#clip-M_T_Bank)">
    <path id="M_T_Bank_wordmark" data-name="M&amp;T_Bank_wordmark" d="M88.949,12.507a5.765,5.765,0,0,0,4.775-5.952c0-3.893-2.532-6.5-7.786-6.5H77.456v25.71h8.777c5.473,0,8.408-2.572,8.408-6.944C94.641,15.333,92.548,13.089,88.949,12.507ZM79.07,1.376H85.9c4.152,0,6.136,2.018,6.136,5.288s-1.984,5.254-6.136,5.254H79.07Zm7.088,23.068H79.07V13.239h7.088c4.591,0,6.794,2.093,6.794,5.583C92.952,22.345,90.749,24.445,86.158,24.445Zm17.7-16.972a6.674,6.674,0,0,0-6.684,4.591l1.4.444a5.316,5.316,0,0,1,5.288-3.783c3.085,0,4.85,1.471,4.85,5.329v1.027l-2.353.11c-7.9.26-10.138,2.716-10.138,5.842,0,3.195,2.572,5.179,5.986,5.179a6.751,6.751,0,0,0,6.5-4v3.564h1.546V14.416C110.253,9.606,107.9,7.472,103.863,7.472Zm4.844,11.35a5.971,5.971,0,0,1-6.315,6.136c-2.716,0-4.591-1.58-4.591-3.927,0-2.5,1.724-4.481,8.628-4.7l2.278-.075Zm12.745-11.35a7.223,7.223,0,0,0-6.794,4.994V7.911h-1.58V25.76h1.58V16.8c0-4.741,2.647-8,6.5-8,3.01,0,4.556,1.8,4.556,5.323V25.765h1.58V13.793C127.294,9.969,125.236,7.472,121.452,7.472Zm15.317,7.457,6.424-7.019h-1.909L131.7,18.487V.056h-1.58v25.71h1.58V20.4l4.043-4.371,6.684,9.729h1.8Zm-86.6-7.947h1.574s-.012-5.617,5.121-5.617H58.43V24.45H55.973a7.351,7.351,0,0,1-4.141-2.364L49.987,20.3A11.88,11.88,0,0,0,51.3,18.066c.427-.98.738-2.82.928-3.27a2.979,2.979,0,0,1,.219-.427,2.428,2.428,0,0,1,1.067-.888,2.755,2.755,0,0,1,1.055-.231h.236V11.919h-7.7v1.332h.519a2.556,2.556,0,0,1,2.543,2.566A5.624,5.624,0,0,1,48.8,19.156l-7.036-6.834c3.143-1.142,5.784-2.711,5.784-5.663,0-3.108-2.37-5.294-6.649-5.294-4.343,0-7.232,2.4-7.232,6.28A7.3,7.3,0,0,0,35.973,13c-3.57,1.384-5.692,3.2-5.692,6.528,0,4.677,4.216,6.557,8.9,6.557a12.709,12.709,0,0,0,7.664-2.4c.029-.023,1.332,2.093,5.173,2.093l14.608-.012V24.45H63.811V1.365h1.563c5.115,0,5.121,5.617,5.121,5.617h1.574V.056h-21.9ZM40.748,2.674c1.7,0,2.739,1.361,2.739,3.3a5.527,5.527,0,0,1-3.016,5.115,7.339,7.339,0,0,1-2.463-5.179C38,4.006,39.053,2.674,40.748,2.674Zm-.156,21.171a5.168,5.168,0,0,1-5.323-5.271c0-2.122.49-3.414,1.909-4.337l8.495,8.339A8.9,8.9,0,0,1,40.592,23.845ZM27.674,1.365h3.045V.05H22.513l-7.007,17.5C15.287,17,8.464.05,8.464.05H.05V1.371H3.1L3.089,24.445H.569V25.76H8V24.445H4.7V4.306L12.98,25.171h1.332s7.78-19.885,8.166-20.865c0,1.078-.012,20.144-.012,20.144H19.877V25.76h10.4V24.45h-2.6V1.365Z" transform="translate(23.862 60.948)" fill="#027856"/>
  </g>
</svg>
