<svg xmlns="http://www.w3.org/2000/svg" xmlns:xlink="http://www.w3.org/1999/xlink" width="192" height="148" viewBox="0 0 192 148">
  <defs>
    <clipPath id="clip-Netspend">
      <rect width="192" height="148"/>
    </clipPath>
  </defs>
  <g id="Netspend" clip-path="url(#clip-Netspend)">
    <g id="netspend-ar21" transform="translate(3.494 37.967)">
      <path id="Path_37415" data-name="Path 37415" d="M65.961,35.976H58.653V33.394h3.274a.982.982,0,0,0,.976-.976v-.472a.982.982,0,0,0-.976-.976H58.653V28.8h7.02a1.2,1.2,0,0,0,0-2.393H57.457a1.2,1.2,0,0,0-1.2,1.2v9.6a1.2,1.2,0,0,0,1.2,1.2h8.5a1.213,1.213,0,0,0,0-2.425Zm14.388-9.6H71.5a1.2,1.2,0,1,0,0,2.393h3.212v8.408a1.2,1.2,0,1,0,2.393,0V28.8h3.212a1.2,1.2,0,0,0,1.2-1.2,1.124,1.124,0,0,0-1.165-1.228Zm72.434,0h-5.289a1.2,1.2,0,0,0-1.2,1.2v9.6a1.2,1.2,0,0,0,1.2,1.2h5.289c3.59,0,6.063-2.234,6.063-6.2.032-4.44-3.274-5.792-6.063-5.792Zm0,9.6h-4.094V28.8h4.094c1.889,0,3.67.724,3.67,3.558A3.354,3.354,0,0,1,152.782,35.976ZM107,26.371h-5.983a1.2,1.2,0,0,0-1.2,1.2v9.541a1.274,1.274,0,0,0,1.165,1.276,1.184,1.184,0,0,0,1.229-1.2V34.039H107c2.489,0,4.314-1.2,4.314-3.872.032-2.739-1.983-3.778-4.314-3.778Zm0,5.259h-4.786V28.764H107c.85,0,1.921.128,1.921,1.385C108.925,31.534,107.948,31.63,107,31.63ZM50.848,26.323a1.2,1.2,0,0,0-1.2,1.2l.032,7.368-6.329-7.9a1.742,1.742,0,0,0-3.086,1.1l.032,9.257a1.2,1.2,0,1,0,2.393,0V29.961l6.329,7.9a1.742,1.742,0,0,0,3.086-1.1l-.064-9.257a1.2,1.2,0,0,0-1.2-1.2Zm90.111,0a1.2,1.2,0,0,0-1.2,1.2l.032,7.368-6.329-7.9a1.742,1.742,0,0,0-3.086,1.1l.032,9.257a1.2,1.2,0,0,0,2.393,0V29.961l6.329,7.9a1.742,1.742,0,0,0,3.086-1.1l-.032-9.257a1.244,1.244,0,0,0-1.229-1.2ZM89.545,30.905c-1.605,0-2.2-.378-2.425-.6a1.073,1.073,0,0,1-.22-.724c0-.346.064-1.229,2.707-1.229a6.792,6.792,0,0,1,2.928.692,1.193,1.193,0,0,0,1.605-.472,1.18,1.18,0,0,0-.472-1.605,9.188,9.188,0,0,0-4.062-.976c-4.282,0-5.038,2.2-5.1,3.51a3.323,3.323,0,0,0,.882,2.489c.85.882,2.2,1.324,4.156,1.324,2.457,0,3.43.724,3.51,1.324a1.157,1.157,0,0,1-.252,1.008,3.5,3.5,0,0,1-2.489.756,7.882,7.882,0,0,1-3.9-.85,1.2,1.2,0,0,0-1.2,2.077,10.214,10.214,0,0,0,5.1,1.165,5.793,5.793,0,0,0,4.282-1.543,3.536,3.536,0,0,0,.85-2.865c-.284-2.2-2.425-3.462-5.9-3.462Zm35.515,5.07h-7.307V33.394h3.37a.982.982,0,0,0,.976-.976v-.472a.982.982,0,0,0-.976-.976h-3.37V28.8h7.02a1.2,1.2,0,0,0,0-2.393h-8.217a1.2,1.2,0,0,0-1.2,1.2v9.6a1.2,1.2,0,0,0,1.2,1.2h8.5a1.213,1.213,0,0,0,0-2.425Z" transform="translate(20.758 4.144)" fill="#0092bc"/>
      <path id="Path_37416" data-name="Path 37416" d="M33.6,30.8l-4.336-3.287L19.329,20.8a9.211,9.211,0,0,0-13.92,7.9v7.974c4.617-6.924,12.871,0,19.516,5.105,1.4,1.117,2.869,2.17,4.336,3.287a103.917,103.917,0,0,0,9.933,6.717,9.211,9.211,0,0,0,13.92-7.9V35.835c-4.617,6.924-12.871,0-19.516-5.037Z" transform="translate(0 0.273)" fill="#ff8200"/>
      <path id="Path_37417" data-name="Path 37417" d="M25.474,45.9l-6.7-4.967c-3.287-2.1-8.464-5.456-11.806-1.54a7.34,7.34,0,0,0-1.54,4.754,10.37,10.37,0,0,0,2.026,6.225,9.811,9.811,0,0,0,12.591,2.309c1.54-.909,4.617-3.148,7.554-5.176a1.253,1.253,0,0,1-.351-.279L25.5,45.9ZM33.1,27.157l6.7,4.967c3.287,2.1,8.464,5.456,11.806,1.54a7.34,7.34,0,0,0,1.54-4.754,10.37,10.37,0,0,0-2.026-6.225,9.811,9.811,0,0,0-12.591-2.309c-1.54.909-4.617,3.148-7.554,5.176a1.229,1.229,0,0,1,.349.279l1.749,1.329Z" transform="translate(0.011)" fill="#fc4c02"/>
    </g>
  </g>
</svg>
