<svg xmlns="http://www.w3.org/2000/svg" xmlns:xlink="http://www.w3.org/1999/xlink" width="192" height="148" viewBox="0 0 192 148">
  <defs>
    <clipPath id="clip-Hartford">
      <rect width="192" height="148"/>
    </clipPath>
  </defs>
  <g id="Hartford" clip-path="url(#clip-Hartford)">
    <g id="Group_751" data-name="Group 751" transform="translate(40.669 33)">
      <path id="Vector" d="M103.917,77.417c0-2.289,1-3.7,2.4-3.7a2.371,2.371,0,0,1,1.859.941v5.2a2.474,2.474,0,0,1-1.979,1.219C104.857,81.075,103.917,79.706,103.917,77.417ZM105.137,83a3.507,3.507,0,0,0,3.037-1.925v1.69h3.157a9.285,9.285,0,0,1-.479-3.423V67.235l-3.178.513a8.68,8.68,0,0,1,.5,3.444v1.882a3.171,3.171,0,0,0-2.538-1.284c-2.478,0-4.456,2.31-4.456,5.668,0,3.38,1.719,5.54,3.957,5.54m-11.131-.235h3.6a10.283,10.283,0,0,1-.479-3.551V76.026a2.862,2.862,0,0,1,2.458-1.818,3.786,3.786,0,0,1,1.3.214l-.159-2.5a2.259,2.259,0,0,0-.86-.15c-1.079,0-2.158.92-2.738,2.973V71.92l-3.177.513a8.81,8.81,0,0,1,.5,3.444v3.337a10.871,10.871,0,0,1-.44,3.551m-6.155-1.626c-1.4,0-2.338-1.348-2.338-3.722s.939-3.722,2.3-3.722c1.4,0,2.338,1.348,2.338,3.722S89.231,81.139,87.852,81.139ZM87.832,83c2.9,0,5.076-2.374,5.076-5.647,0-3.23-2.158-5.561-5.076-5.561-2.9,0-5.076,2.353-5.076,5.626,0,3.251,2.158,5.583,5.076,5.583m-10.77-.235h3.617a10.281,10.281,0,0,1-.479-3.551V73.781h2.318V72.027H80.179c-.02-.513-.04-1.027-.04-1.54,0-1.027.42-1.519,1.239-1.519a3.006,3.006,0,0,1,1.359.364l-.24-2.053A5.211,5.211,0,0,0,80.838,67C78.76,67,77.5,68.412,77.5,70.786v1.241H75.8l-.38,1.754H77.5v5.433a10.876,10.876,0,0,1-.44,3.551m-4.256.214a4.984,4.984,0,0,0,2.138-.513l.14-1.711a3.051,3.051,0,0,1-1.219.342c-.759,0-1.2-.428-1.2-1.3V73.781H74.8l.38-1.754H72.665V69.139l-2.658.6v2.289H68.549l.08,1.754h1.379v6.31a2.559,2.559,0,0,0,2.8,2.888M61.2,82.765h3.6a10.278,10.278,0,0,1-.48-3.551V76.026a2.862,2.862,0,0,1,2.458-1.818,3.792,3.792,0,0,1,1.3.214l-.16-2.5a2.256,2.256,0,0,0-.859-.15c-1.079,0-2.158.92-2.738,2.973V71.92l-3.177.513a8.812,8.812,0,0,1,.5,3.444v3.337a10.868,10.868,0,0,1-.44,3.551M53.3,79.877c0-.706.4-1.262,1.359-1.455l2.1-.471v1.861a2.962,2.962,0,0,1-2.158,1.3,1.178,1.178,0,0,1-1.3-1.241m.28,3.1a3.841,3.841,0,0,0,3.177-2.1A8.041,8.041,0,0,0,57,82.765h2.917a6.545,6.545,0,0,1-.5-2.717V75.813c0-2.524-1.379-4.021-4.1-4.021a7.743,7.743,0,0,0-3.637.92L51.4,74.85A6.04,6.04,0,0,1,54.722,73.7a1.836,1.836,0,0,1,2.038,2.1v.663l-2.678.471c-2.3.407-3.357,1.5-3.357,3.187a2.728,2.728,0,0,0,2.857,2.866m-16.125-.214h3.9a12.709,12.709,0,0,1-.5-4.15V76.176H46.37v2.439a12.665,12.665,0,0,1-.519,4.15h3.916a12.665,12.665,0,0,1-.519-4.15V71.941a12.665,12.665,0,0,1,.519-4.15H45.85a12.665,12.665,0,0,1,.519,4.15v2.118H40.855V71.941a12.709,12.709,0,0,1,.5-4.15h-3.9a13.223,13.223,0,0,1,.52,4.15v6.674A13.223,13.223,0,0,1,37.458,82.765Zm-8.512-9.112c1.079,0,1.878.813,2.078,2.524H26.907c.2-1.562.919-2.524,2.038-2.524m.559,9.326a5.918,5.918,0,0,0,3.317-.984l.24-2.011a5.155,5.155,0,0,1-3.1,1.112c-1.719,0-2.858-1.112-3.077-3.208h6.674c.08-3.786-1.8-6.1-4.636-6.1-2.857,0-4.756,2.481-4.756,5.6C24.17,80.669,26.288,82.979,29.5,82.979Zm-16.166-.214h3.537a11.006,11.006,0,0,1-.42-3.465V74.979A2.577,2.577,0,0,1,18.415,73.8c.9,0,1.6.663,1.6,1.925V79.3a11.006,11.006,0,0,1-.42,3.465h3.557a10.829,10.829,0,0,1-.46-3.551V75.342c0-2.225-1.219-3.551-3.057-3.551a3.668,3.668,0,0,0-3.177,2.053v-6.61l-3.177.513a8.686,8.686,0,0,1,.5,3.444v8.021A10.87,10.87,0,0,1,13.339,82.765Zm-8.772,0H8.544A12.621,12.621,0,0,1,8,78.615V69.866h.62A8.1,8.1,0,0,1,12.6,70.7l-.44-2.909H.771L.331,70.7a8.407,8.407,0,0,1,4.056-.834h.739v8.749A12.078,12.078,0,0,1,4.567,82.765Z"/>
      <path id="Vector_2" d="M71.061,56.993l-.255-1.483a5.809,5.809,0,0,1,.851-3.728c1.531-2.287,3.4-3.632,3.4-8.6a7.315,7.315,0,0,0-7.357-7.54,5.423,5.423,0,0,1-2.636-.531l-.011.015c1.585,1.748,1.669,5.178,1.669,5.641h-.031a12.046,12.046,0,0,0-6.816-7.412,13.906,13.906,0,0,1-.451,4.193h-.017c0-.042,0-4.744-3.53-6.862L54.9,30.1c-.723-.424-.893-.72-1.148-1.821L52.518,22.9H49.587l0-.018,3.531-1.549c.723-.3,1.276-.678,1.4-1.271a1.555,1.555,0,0,1-.978.3,1.709,1.709,0,0,1-1.488-.72h2.339A.663.663,0,0,0,55.07,19v-.886a.382.382,0,0,0-.383-.381H52.652a.314.314,0,0,0-.314.313v.045a.352.352,0,0,0,.128.252l.242.177a.313.313,0,0,1-.186.565H51.37V18.049a.806.806,0,0,1,.808-.8h2.2s0-.019,0-.019a7.1,7.1,0,0,0-1.049-.43,2.741,2.741,0,0,0,1.021-2.033s-1.432.25-1.446.254a1.757,1.757,0,0,0-1.093.518l-.78-.835,2.929-.785a14.433,14.433,0,0,0,3.808-1.6,8.973,8.973,0,0,0,4.143-6.062L61.2,5.54a7.824,7.824,0,0,1-2.285,4.3A5.294,5.294,0,0,0,59.155,8.6c.016-.244.019-.487.01-.731a7.651,7.651,0,0,0,.929-3.423l-.77-.729a4.1,4.1,0,0,1-.5,2.079A12.029,12.029,0,0,0,54.73,0l-.571.569a16.8,16.8,0,0,1,2.609,3.268,18.932,18.932,0,0,0-5.126-.761l-.819.816a18.391,18.391,0,0,1,6.716,1.625,7.062,7.062,0,0,1,.4,2.2,4.245,4.245,0,0,1-2.56,4.208,9.122,9.122,0,0,0,.653-2.946l-.746-.744a8.1,8.1,0,0,1-1.8,4.325l-1.8.4A17.2,17.2,0,0,0,53.643,6.6l-.754-.752a18.163,18.163,0,0,1-3.013,7.234,6.012,6.012,0,0,1-.78.841c-.011-.009,2.333,2.449,2.333,2.449H50.179a1.746,1.746,0,0,0-1.616.593l-.255.3a1.814,1.814,0,0,1-1.346.763,1.436,1.436,0,0,1-1.376-1.1h2.169l.425-.466v-.085c-.832,0-.858-.889-1.829-.889a1.647,1.647,0,0,0-1.148.466V15.1a3.564,3.564,0,0,1,2.127-.551h1.233l-.681-.678s-1.739-.444-1.892-.485a11.78,11.78,0,0,0,.527-3.176,14.593,14.593,0,0,0-1.6-6.275l-.68.682a15.006,15.006,0,0,1,.957,4.96,8.928,8.928,0,0,1-.657,3.3A10.819,10.819,0,0,1,40.581,4.82l-.8.8a12.311,12.311,0,0,0,2.2,6.72c-.98-.257-3.752-.974-4.822-1.249A7.48,7.48,0,0,1,35.2,7.409l-.71.707a8.919,8.919,0,0,0,.792,2.5q-.514-.131-1.024-.286A10.384,10.384,0,0,1,32.3,7.841l.008,0c.736-3.047,4.117-5.227,6.175-5.66l-.677-.674a9.918,9.918,0,0,0-6.237,4.654,13.152,13.152,0,0,1-.606-3.219c-.055-.834-.054-1.676-.045-2.514l-.86.857c-.013.314-.026.629-.029.945a12.286,12.286,0,0,0,1.756,7.123,6.014,6.014,0,0,1-3.707-4.871l-.751.748c.16,2.358,2.205,4.212,3.552,4.991a18.711,18.711,0,0,0,4.678,1.813c2.168.624,5.533,1.585,8.111,2.326v1.524l-.019,0A1.956,1.956,0,0,0,41.928,14.8l-3.062-.339a4.244,4.244,0,0,0,3.913,3.982,39.108,39.108,0,0,0-2,10.208,14.149,14.149,0,0,0,.6,4.151,6.823,6.823,0,0,1,.213,3.389c-.127.72-.383,1.948-.553,2.88a7.883,7.883,0,0,0,.213,4.151c1.439,4,3.147,3.3,3.4,5.591l.808,7.2-7.23-.762L37.42,60H82.246l.085-1.737-11.27-1.271ZM48.521,48.988l2.424.678L48.691,54.24l-.17-5.252ZM54.6,55.257l-.3,1.737-3.487-.381,4.3-5.676,2,.593a12.258,12.258,0,0,0,3.743.551h1.021c.723,2.33,1.871,2.965,2.722,4.236L54.6,55.257Z"/>
    </g>
  </g>
</svg>
