<svg xmlns="http://www.w3.org/2000/svg" xmlns:xlink="http://www.w3.org/1999/xlink" width="192" height="148" viewBox="0 0 192 148">
  <defs>
    <clipPath id="clip-Umpqua_Bank_New">
      <rect width="192" height="148"/>
    </clipPath>
  </defs>
  <g id="Umpqua_Bank_New" data-name="Umpqua Bank New" clip-path="url(#clip-Umpqua_Bank_New)">
    <g id="Umpqua_Bank_New-2" data-name="Umpqua Bank New" transform="translate(-40.532 -183.717)">
      <g id="Group_697" transform="translate(50.741 242.05)">
        <path id="Path_426" d="M74.721,258.355a3.393,3.393,0,0,0,0-4.385l-8.2-9.766c-.8-.947-1.52-1.893-2.84-2.118a4.037,4.037,0,0,0-1.1,0c-1.32.224-2.018,1.146-2.84,2.118-2.74,3.263-5.456,6.5-8.2,9.766a3.422,3.422,0,0,0,5.232,4.409c1.37-1.644,2.74-3.787,4.933-4.385a5.489,5.489,0,0,1,2.84,0c2.192.6,3.562,2.74,4.933,4.385a3.4,3.4,0,0,0,4.808.423c.149-.15.3-.3.423-.448Zm0,14.324a3.393,3.393,0,0,0,0-4.385l-8.2-9.766c-.8-.947-1.52-1.893-2.84-2.118a4.042,4.042,0,0,0-1.1,0c-1.32.224-2.018,1.146-2.84,2.118-2.74,3.263-5.456,6.5-8.2,9.766A3.411,3.411,0,0,0,56.76,272.7a.024.024,0,0,1,.025-.025c1.37-1.644,2.74-3.787,4.933-4.385a5.489,5.489,0,0,1,2.84,0c2.192.6,3.562,2.74,4.933,4.385a3.413,3.413,0,0,0,5.232,0Z" transform="translate(-50.741 -242.05)" fill="#4da6af"/>
        <path id="Path_427" d="M211.3,278.625v13.353h-2.79v-8.545l-3.089,4.285h-2.441l-3.114-4.285v8.545h-2.79V278.625h2.79L204.2,284.6l4.36-5.979Zm108.168,0-3.089,3.513-1.744,1.968V278.65h-2.79V292h2.79v-4.135l1.221-1.4,3.587,5.53h3.313l-5.032-7.7,4.933-5.655Zm-127.425,0v8.57a2.091,2.091,0,0,1-.623,1.495,2.819,2.819,0,0,1-2.043.8,2.705,2.705,0,0,1-1.993-.8,2.11,2.11,0,0,1-.6-1.495v-8.57H184v8.321a6.222,6.222,0,0,0,.4,2.217,4.474,4.474,0,0,0,1,1.52,5.521,5.521,0,0,0,3.986,1.52,5.705,5.705,0,0,0,4.011-1.495,4.2,4.2,0,0,0,1.021-1.52,6.15,6.15,0,0,0,.423-2.217V278.65h-2.79Zm55.7,0v8.57a2.091,2.091,0,0,1-.623,1.495,2.819,2.819,0,0,1-2.043.8,2.705,2.705,0,0,1-1.993-.8,2.11,2.11,0,0,1-.6-1.495v-8.57H239.7v8.321a6.222,6.222,0,0,0,.4,2.217,4.473,4.473,0,0,0,1,1.52,5.521,5.521,0,0,0,3.986,1.52,5.705,5.705,0,0,0,4.011-1.495,4.2,4.2,0,0,0,1.021-1.52,6.15,6.15,0,0,0,.423-2.217V278.65h-2.79Zm-29.371,0a4.558,4.558,0,0,1,3.189,1.121,4.551,4.551,0,0,1,0,6.2,4.5,4.5,0,0,1-3.164,1.121h-2.043v4.883h-2.79V278.6h4.808m-.05,5.8a1.94,1.94,0,0,0,.922-.224,1.36,1.36,0,0,0,.648-1.3,1.422,1.422,0,0,0-.648-1.32,1.71,1.71,0,0,0-.922-.249h-1.993V284.4h1.993m36.8,5.306-.847,2.267h-3.014l5.281-13.353h2.715l5.281,13.353h-3.014l-.847-2.267Zm2.765-7.523-1.819,4.908h3.612Zm28.9,7.523-.847,2.267h-3.014l5.281-13.353h2.715l5.281,13.353H293.19l-.847-2.267Zm2.79-7.523-1.819,4.908h3.612Zm17.239-3.562v9.143l-6.6-9.143h-2.367v13.353h2.79v-8.545l6.2,8.545h2.79V278.625Zm-26.78,6.477a3.521,3.521,0,0,1,.523,6,5.043,5.043,0,0,1-2.965.872h-5.63V278.625h5.406a4.412,4.412,0,0,1,3.189,1.171,3.393,3.393,0,0,1,.972,2.392,2.983,2.983,0,0,1-1.495,2.915m-5.281-1.32h2.392a1.435,1.435,0,0,0,.947-.3,1.355,1.355,0,0,0,0-1.868,1.435,1.435,0,0,0-.947-.3h-2.392Zm2.516,5.506a1.679,1.679,0,0,0,1.1-.324,1.31,1.31,0,0,0,.448-1.046,1.426,1.426,0,0,0-.423-1.071,1.672,1.672,0,0,0-1.121-.349h-2.516v2.815l2.516-.025M236.49,292.2l-1.37-1.37a6.8,6.8,0,1,1,1.594-1.719l3.114,3.089Zm-4.11-10.538a3.988,3.988,0,1,0,1.445.922,4.46,4.46,0,0,0-1.445-.922Z" transform="translate(-150.803 -269.495)" fill="#1c1b1a"/>
      </g>
    </g>
  </g>
</svg>
