<svg xmlns="http://www.w3.org/2000/svg" xmlns:xlink="http://www.w3.org/1999/xlink" width="192" height="148" viewBox="0 0 192 148">
  <defs>
    <clipPath id="clip-US_Bank">
      <rect width="192" height="148"/>
    </clipPath>
  </defs>
  <g id="US_Bank" data-name="US Bank" clip-path="url(#clip-US_Bank)">
    <g id="US_Bank-2" data-name="US Bank" transform="translate(27.424 -16.019)">
      <path id="Path_38118" data-name="Path 38118" d="M8.576,75.019V98.167l19.572,6.691,19.618-6.691V75.019Z" fill="#bf4956" fill-rule="evenodd"/>
      <path id="Path_38119" data-name="Path 38119" d="M29.443,100.452h-6V98.39a6.076,6.076,0,0,1-5.317,2.52,5.3,5.3,0,0,1-5.638-5.545V84.18h6.234V92.8c0,1.834.229,3.162,2.063,3.162,1.009,0,2.429-.5,2.429-3.162V84.18h6.234v16.272Zm11.6-11.5a1.516,1.516,0,0,0-.733-1.192,1.972,1.972,0,0,0-1.422-.55c-.779,0-1.833.23-1.833,1.284a.933.933,0,0,0,.733.871c1.054.458,3.392.55,5.5,1.283,1.971.642,3.8,1.833,3.8,4.492,0,4.537-4.263,5.775-8.251,5.775-3.85,0-8.021-1.558-8.158-5.775h5.914a2.188,2.188,0,0,0,.825,1.467,2.731,2.731,0,0,0,1.65.458c.779,0,2.109-.274,2.109-1.238s-.6-1.191-3.484-1.7c-4.721-.825-6.647-2.384-6.647-5.134,0-4.125,4.446-5.18,7.7-5.18,3.575,0,7.792.963,7.93,5.134H41.04Z" transform="translate(-1.342 -3.02)" fill="#fff" fill-rule="evenodd"/>
      <path id="Path_38120" data-name="Path 38120" d="M71.537,75.158h6.188V83h.092a5.454,5.454,0,0,1,4.446-2.154c5.455,0,6.967,4.583,6.967,8.434,0,4.078-2.246,8.662-6.83,8.662-3.025,0-3.987-1.191-4.813-2.2h-.046V97.48H71.536V75.158Zm8.709,10.221c-2.2,0-2.7,2.063-2.7,3.988s.5,4.08,2.7,4.08c2.246,0,2.75-2.154,2.75-4.08s-.5-3.988-2.75-3.988Zm26.265,8.479a6.79,6.79,0,0,0,.732,3.622h-6.279a4.47,4.47,0,0,1-.23-1.558h-.045a6.561,6.561,0,0,1-5.271,2.016c-3.118,0-5.684-1.558-5.684-4.951,0-5.087,6.005-4.95,9.168-5.545.825-.137,1.7-.366,1.7-1.421,0-1.1-1.008-1.558-2.063-1.558-1.925,0-2.292.962-2.292,1.7H90.467c.137-4.584,4.492-5.317,8.343-5.317,7.791,0,7.7,3.208,7.7,6.371v6.645ZM100.6,90.193a8.342,8.342,0,0,1-2.429.779c-1.421.32-2.154.688-2.154,1.788a1.776,1.776,0,0,0,1.925,1.466,2.482,2.482,0,0,0,2.659-2.52V90.193Zm8.16-8.985h5.958v2.063h.091a6.015,6.015,0,0,1,5.318-2.429,5.222,5.222,0,0,1,5.545,5.5V97.48h-6.187V89c0-1.925-.23-3.208-2.017-3.208-1.1,0-2.52.55-2.52,3.117V97.48h-6.188V81.208Zm19.16-6.05H134.1V85.976l3.943-4.767h7.013l-5.775,6.142,6.646,10.13h-7.472L135.2,91.659l-1.1,1.192V97.48h-6.186ZM148.77,95.28a1.122,1.122,0,0,1,.274.872,1.072,1.072,0,0,1-.274.825,1.09,1.09,0,0,1-.917.367.812.812,0,0,1-.78-.367.885.885,0,0,1-.367-.825.919.919,0,0,1,.367-.872,1.133,1.133,0,0,1,.78-.366A1.461,1.461,0,0,1,148.77,95.28Zm.137-.137a1.736,1.736,0,0,0-1.054-.367,1.4,1.4,0,0,0-.963.367,1.427,1.427,0,0,0-.412,1.009,1.251,1.251,0,0,0,.412.962,1.154,1.154,0,0,0,.963.458,1.4,1.4,0,0,0,1.421-1.42A1.6,1.6,0,0,0,148.908,95.143Zm-.825.963h-.506v-.55h.23a.5.5,0,0,1,.367.091c.046,0,.046.093.046.23A.425.425,0,0,1,148.083,96.106Zm-.779.778h.274v-.55h.23c.137,0,.23,0,.276.046.091,0,.137.137.137.32v.183h.32c-.093,0-.093-.045-.093-.045v-.23a.425.425,0,0,0-.045-.23.25.25,0,0,0-.23-.137c.046-.091.137-.091.23-.137.045,0,.137-.183.137-.32s-.093-.276-.32-.367a2.462,2.462,0,0,0-.367-.046h-.55v1.513Z" transform="translate(-21.617 -0.048)" fill="#325390" fill-rule="evenodd"/>
    </g>
  </g>
</svg>
