<svg xmlns="http://www.w3.org/2000/svg" xmlns:xlink="http://www.w3.org/1999/xlink" width="192" height="148" viewBox="0 0 192 148">
  <defs>
    <clipPath id="clip-Wells_Fargo">
      <rect width="192" height="148"/>
    </clipPath>
  </defs>
  <g id="Wells_Fargo" data-name="Wells Fargo" clip-path="url(#clip-Wells_Fargo)">
    <g id="Wells_Fargo-2" data-name="Wells Fargo" transform="translate(-127.409 -25.296)">
      <rect id="Rectangle_7008" data-name="Rectangle 7008" width="86" height="86" transform="translate(180.408 56.296)" fill="#c62346"/>
      <path id="Path_38431" data-name="Path 38431" d="M268.331,225.249c-.838,0-1.117.321-1.463,1.249l-2.9,7.761h-1.828l-2.32-5.633-2.215,5.633h-1.892l-3.029-7.636c-.346-.879-.857-1.374-1.611-1.374h-.239V224.11h5.162v1.139h-.5c-.577,0-.836.153-.816.474a.644.644,0,0,0,.043.321s1.181,2.785,2.115,5.535a1.124,1.124,0,0,0,.141.014L259,226.519c-.084-.838-.365-1.271-1.244-1.271h-.688V224.11H262.5v1.139h-.857c-.513,0-.711.112-.711.412a1.113,1.113,0,0,0,.084.426s1.224,2.951,2.117,5.521c.119,0,.119.007.119.007l1.962-5.137a2.054,2.054,0,0,0,.127-.775c0-.321-.282-.453-.857-.453h-.711V224.11h4.943v1.139Zm-.437,9.01v-1.137l.6-.021c.886,0,1.379-.084,1.379-.928v-5.995c0-.838-.494-.928-1.379-.928h-.6V224.11h10.963v3.936H277.7c-.062-2.365-.618-2.737-2.685-2.737h-2.84v3.015h.731c1.294,0,1.463-.431,1.57-1.96h1.167v5.145H274.45c-.086-1.745-.253-1.983-1.527-1.983h-.752v3.532h3.27c1.85,0,2.292-.873,2.454-2.89h1.16v4.09H267.894Zm12.053,0v-1.137h.583c.88,0,1.267-.084,1.267-.95l-.021-5.973c0-.859-.513-.95-1.377-.95h-.535V224.11h6.125v1.139l-.731.021c-.984,0-1.16.091-1.16.928v6.861h2.477c1.2,0,1.912-.155,2.235-.754a4.122,4.122,0,0,0,.428-2.137h1.181v4.09Zm11.364,0v-1.137h.155c.886,0,1.272-.084,1.272-.95l-.021-5.973c0-.859-.415-.95-1.272-.95H290.8V224.11h6.132v1.139l-.731.021c-.993,0-1.16.091-1.16.928v6.861h2.468c1.208,0,1.917-.155,2.242-.754a4.175,4.175,0,0,0,.429-2.137h1.181v4.09Z" transform="translate(-57.822 -137.857)" fill="#fff" fill-rule="evenodd"/>
      <path id="Path_38432" data-name="Path 38432" d="M548.387,230.208c0,2.324-1.828,3.161-4.535,3.161a6.3,6.3,0,0,1-3.546-1.249l-.344,1.06h-1.034V229.1h1.181c.324,1.948,1.63,2.791,3.495,2.876,1.6.07,2.742-.358,2.869-1.467.148-1.285-1.265-1.2-2.447-1.417l-1.745-.321c-2.6-.453-3.437-1.208-3.5-2.9-.07-1.85,1.611-3.056,3.869-3.077a5.731,5.731,0,0,1,3.612,1.055l.513-.838h.9v3.544h-1.139c-.248-1.967-2.186-2.568-3.845-2.527-1.2.041-2,.732-2,1.55,0,.761.752.857,1.709,1.025l2.129.371c2.174.362,3.854.809,3.854,3.216v.021Z" transform="translate(-294.458 -136.772)" fill="#fff" fill-rule="evenodd"/>
      <path id="Path_38433" data-name="Path 38433" d="M276.708,313.444a4.513,4.513,0,0,0-.408-2.031c-.344-.6-1.048-.691-2.258-.691H271.5v3.036h.8c1.287,0,1.484-.237,1.484-1.807h.943v5.073L273.77,317c-.021-1.7-.2-2.046-1.463-2.046h-.8V317.6c0,.845.134.928,1.012.928H273.7v1.139H267.44V318.53l.585-.02c.878,0,1.181-.084,1.181-.928v-5.995c0-.838-.3-.928-1.181-.928h-.585V309.52h10.435v3.922h-1.167Z" transform="translate(-71.472 -208.047)" fill="#fff" fill-rule="evenodd"/>
      <path id="Path_38434" data-name="Path 38434" d="M321.989,311.367l-1.525,3.894h3.072Zm.556,8.32v-1.139h1.1c.584,0,.864-.062.864-.41a1.445,1.445,0,0,0-.155-.49l-.429-1.185h-3.96l-.513,1.271a1.206,1.206,0,0,0-.127.474c0,.321.274.34.816.34h1.055v1.139H315.9v-1.139h.463c.795,0,1.034-.278,1.336-.991l3.4-8.017h2.489l3.249,8.017c.3.775.625.991,1.2.991h.492v1.139h-5.984Z" transform="translate(-111.297 -208.064)" fill="#fff" fill-rule="evenodd"/>
      <path id="Path_38435" data-name="Path 38435" d="M391.5,312.225c0-1.18-.688-1.529-2.131-1.529H387.2v3.077l2.215-.021c1.42,0,2.089-.453,2.089-1.506Zm3.585,5.095c0,1.848-.857,2.582-2.081,2.582-1.4,0-2.3-.383-2.368-1.786l-.043-1.18c-.064-1.7-.606-2.044-2.363-2.044H387.2v2.728c0,.845.127.928,1.012.928h.921v1.139H382.94V318.55h.9c.584,0,1.062-.21,1.062-.948v-5.995c0-.838-.134-.928-1.012-.928h-.838V309.54h6.982c2.609,0,3.812.775,3.812,2.409,0,1.465-1.139,2.365-3.077,2.623,1.807.433,2.046,1.075,2.151,2.45a6.085,6.085,0,0,1,0,.627c.043.6.282.88.583.859.62-.041.668-.5.62-1.7h.969a4.233,4.233,0,0,1,.021.517h-.023Z" transform="translate(-166.39 -208.064)" fill="#fff" fill-rule="evenodd"/>
      <path id="Path_38436" data-name="Path 38436" d="M462.117,311.851a2.972,2.972,0,0,0-3.184-2.233c-1.654,0-2.969,1.354-2.947,3.936,0,2.625,1.055,4.042,2.947,4.061,1.377,0,2.6-.682,2.6-1.85v-.558c0-.684-.169-.684-1.139-.684h-.506v-1.165h4.719v1.165h-.387c-.731,0-.843-.07-.843.8v3.4h-.83l-.535-.843a5.735,5.735,0,0,1-3.446,1.075,4.8,4.8,0,0,1-3.523-1.438,5.427,5.427,0,0,1-1.547-3.958,5.128,5.128,0,0,1,1.525-3.824,5.068,5.068,0,0,1,3.594-1.333,4.545,4.545,0,0,1,3.22,1.1l.52-1.055h.809v3.405Z" transform="translate(-224.374 -207.124)" fill="#fff" fill-rule="evenodd"/>
      <path id="Path_38437" data-name="Path 38437" d="M529.782,313.545c0-2.666-1.456-4.056-3.455-4.056-1.974,0-3.48,1.39-3.48,4.056s1.5,4.082,3.48,4.082,3.434-1.424,3.434-4.082Zm-3.412,5.262c-3.373,0-5.989-2.108-5.989-5.3s2.616-5.262,5.968-5.262c3.37,0,5.923,2.08,5.923,5.284C532.269,316.7,529.718,318.807,526.369,318.807Z" transform="translate(-279.339 -206.995)" fill="#fff" fill-rule="evenodd"/>
    </g>
  </g>
</svg>
