<svg xmlns="http://www.w3.org/2000/svg" xmlns:xlink="http://www.w3.org/1999/xlink" width="192" height="148" viewBox="0 0 192 148">
  <defs>
    <clipPath id="clip-AQR">
      <rect width="192" height="148"/>
    </clipPath>
  </defs>
  <g id="AQR" clip-path="url(#clip-AQR)">
    <g id="AQR-2" data-name="AQR" transform="translate(-24.989 -49.116)">
      <path id="Path_37969" data-name="Path 37969" d="M132.107,268,124.5,287.962h4.767l1.075-3.043h7.993l1.075,3.043h4.767L136.591,268Zm-.365,12.943,2.6-7.344,2.6,7.344Z" transform="translate(-43.364 -155.92)" fill="#009fe8"/>
      <g id="Group_17699" data-name="Group 17699" transform="translate(70.1 72.4)">
        <path id="Path_37970" data-name="Path 37970" d="M120.816,72.4a50.716,50.716,0,1,0,50.716,50.716A50.76,50.76,0,0,0,120.816,72.4m0,97.719a47,47,0,1,1,47-47,47.046,47.046,0,0,1-47,47" transform="translate(-70.1 -72.4)" fill="#009fe8"/>
        <path id="Path_37971" data-name="Path 37971" d="M441.173,280.435l.183-.081a6.472,6.472,0,0,0-2.7-12.354H428.9v19.962h4.463v-7h3.185l4.078,7h5.112Zm-3.043-3.449h-4.788v-5.051h4.788a2.526,2.526,0,0,1,0,5.051" transform="translate(-356.113 -228.32)" fill="#009fe8"/>
        <path id="Path_37972" data-name="Path 37972" d="M264.443,273.725c-2.475-.142-16.107-3.489-16.107-3.489s3.814-1.6,9.981-4.362c6.086-2.718,10.813-8.439,10.813-15.56a16.614,16.614,0,1,0-17.223,16.594l-6.147,2.678a35.919,35.919,0,0,0-4.1-.73c-1.765-.1-2.171.426-2.211,1.237-.061,1.1.771,4.138,1.339,4.138a8.329,8.329,0,0,0,2.455-.994c3.834.852,14.14,4,18.237,4.22,2.942.162,6.066-1.846,8.216-4.341l-.426-.527a7.94,7.94,0,0,1-4.828,1.136m-22.437-23.41c0-8.378,4.138-15.174,10.508-15.174s10.508,6.816,10.508,15.174-4.341,15.194-10.508,15.194c-6.35-.02-10.508-6.836-10.508-15.194" transform="translate(-202.265 -200.978)" fill="#009fe8"/>
      </g>
    </g>
  </g>
</svg>
