<svg xmlns="http://www.w3.org/2000/svg" xmlns:xlink="http://www.w3.org/1999/xlink" width="192" height="148" viewBox="0 0 192 148">
  <defs>
    <clipPath id="clip-CIMB">
      <rect width="192" height="148"/>
    </clipPath>
  </defs>
  <g id="CIMB" clip-path="url(#clip-CIMB)">
    <g id="Page_1" data-name="Page 1" transform="translate(16.435 52)">
      <path id="Path_293" data-name="Path 293" d="M.4.5H44.364V44.484H.4Z" transform="translate(-0.4 -0.5)" fill="#790008"/>
      <path id="Path_294" data-name="Path 294" d="M91.019,93.987H67.68L57.3,80.3H80.712Z" transform="translate(-51.382 -72)" fill="#fff"/>
      <path id="Path_295" data-name="Path 295" d="M80.712,225.587H57.3L67.68,211.9H91.019Z" transform="translate(-51.382 -189.913)" fill="#ed1d24"/>
      <path id="Path_296" data-name="Path 296" d="M640.976,86.769c0,5.19-3.391,8.373-8.841,8.373H620.029V66.311h11.576c5.523,0,8.976,3.12,8.976,8.175a6.748,6.748,0,0,1-3.391,5.845A6.83,6.83,0,0,1,640.976,86.769Zm-15.154-8.9H631.2c2.195,0,3.526-1.2,3.526-3.183s-1.331-3.12-3.526-3.12h-5.377Zm9.309,8.57c0-1.6-.936-3.328-3.6-3.328h-5.71V89.89h5.71A3.275,3.275,0,0,0,635.131,86.437Zm-27.6-20.2h5.658V95.007h-5.793V77.794c-.458.8-10.037,17.473-10.037,17.473s-9.579-16.672-10.047-17.473V95.007h-5.845V66.238h5.72S597.158,84.3,597.356,84.71C597.554,84.3,607.528,66.238,607.528,66.238Zm-38.971.062h5.783V95.069h-5.783ZM558.978,88.09l4.056,4.056-.125.135A15.193,15.193,0,0,1,553,96.005,15.255,15.255,0,1,1,553,65.5a15.131,15.131,0,0,1,9.912,3.661l.125.135-4.056,4.046-.062-.062a9.5,9.5,0,1,0,0,14.883Z" transform="translate(-481.638 -58.74)" fill="#790008" fill-rule="evenodd"/>
    </g>
  </g>
</svg>
