<svg xmlns="http://www.w3.org/2000/svg" xmlns:xlink="http://www.w3.org/1999/xlink" width="192" height="148" viewBox="0 0 192 148">
  <defs>
    <clipPath id="clip-NYPIUA">
      <rect width="192" height="148"/>
    </clipPath>
  </defs>
  <g id="NYPIUA" clip-path="url(#clip-NYPIUA)">
    <g id="NYPIUA-2" data-name="NYPIUA" transform="translate(22.522 54.668)">
      <g id="Layer_2" transform="translate(44.402 15.508)">
        <path id="Path_38469" data-name="Path 38469" d="M116.015,37.07v9.964h-1.446l-5.276-8.086v8.086H108.06V37.07h1.405l5.317,8.144V37.07Z" transform="translate(-108.06 -37.052)" fill="#08519c"/>
        <path id="Path_38470" data-name="Path 38470" d="M131.311,41.415V43.26h3.924v1.233h-5.4V37.31h5.231v1.233h-3.76v1.644h3.472v1.233h-3.472Z" transform="translate(-120.891 -37.193)" fill="#08519c"/>
        <path id="Path_38471" data-name="Path 38471" d="M151.444,44.517H150.1L148.863,38.9l-1.175,5.617h-1.344L144.29,37.31h1.578l1.122,5.407,1.122-5.407h1.467l1.175,5.416,1.081-5.416h1.578Z" transform="translate(-129.403 -37.193)" fill="#08519c"/>
        <path id="Path_38472" data-name="Path 38472" d="M173.621,43.113v3.912h-1.233V43.113L168.62,37.06h1.529l2.876,4.857,2.786-4.857H177.3Z" transform="translate(-143.736 -37.046)" fill="#08519c"/>
        <path id="Path_38473" data-name="Path 38473" d="M192.089,37.027A2.841,2.841,0,0,1,194.34,38a4.009,4.009,0,0,1,.933,2.741,4.058,4.058,0,0,1-.933,2.757,3.092,3.092,0,0,1-4.372.148q-.074-.068-.148-.148a4.512,4.512,0,0,1,0-5.473A2.853,2.853,0,0,1,192.089,37.027Zm0,1.27a1.593,1.593,0,0,0-1.393.756,3.027,3.027,0,0,0-.436,1.693,2.833,2.833,0,0,0,.563,1.861,1.642,1.642,0,0,0,2.313.21,1.758,1.758,0,0,0,.337-.382,3.027,3.027,0,0,0,.436-1.693,2.833,2.833,0,0,0-.563-1.861,1.564,1.564,0,0,0-1.257-.583h0Z" transform="translate(-155.679 -37.025)" fill="#08519c"/>
        <path id="Path_38474" data-name="Path 38474" d="M208.3,41.647v2.876H206.94V37.3h3.546a1.639,1.639,0,0,1,1.282.493,2.1,2.1,0,0,1,.5,1.459,1.765,1.765,0,0,1-1.126,1.783,1.276,1.276,0,0,1,.777.674,10.762,10.762,0,0,1,.152,1.956.648.648,0,0,0,.288.583v.271H210.9a2.875,2.875,0,0,1-.2-1.233V42.5a.747.747,0,0,0-.629-.851.609.609,0,0,0-.193,0Zm0-1.233h1.644a1.083,1.083,0,0,0,.719-.181,1.018,1.018,0,0,0,.251-.764.947.947,0,0,0-.251-.736,1.069,1.069,0,0,0-.719-.193H208.3Z" transform="translate(-166.311 -37.183)" fill="#08519c"/>
        <path id="Path_38475" data-name="Path 38475" d="M224.156,42.1v2.408H222.8V37.3h1.356v3.172l2.6-3.172h1.607l-2.638,3.1,2.917,4.109H227l-2.161-3.18-.678.772Z" transform="translate(-175.654 -37.187)" fill="#08519c"/>
        <path id="Path_38476" data-name="Path 38476" d="M240.677,42.818v4.216H239.37V37.07h4.257a3.248,3.248,0,0,1,2.465.863,2.875,2.875,0,0,1,.719,2.054,2.659,2.659,0,0,1-.875,2.1,2.871,2.871,0,0,1-2.026.731h-3.234Zm0-1.126h2.749a2.168,2.168,0,0,0,1.467-.46,1.624,1.624,0,0,0,.53-1.294,1.6,1.6,0,0,0-.53-1.282,2.175,2.175,0,0,0-1.467-.468h-2.749Z" transform="translate(-185.415 -37.052)" fill="#08519c"/>
        <path id="Path_38477" data-name="Path 38477" d="M260.3,41.65v2.876H258.82V37.3h3.867a1.873,1.873,0,0,1,1.4.493,2,2,0,0,1,.542,1.459,1.764,1.764,0,0,1-1.233,1.783,1.353,1.353,0,0,1,.846.674,9.733,9.733,0,0,1,.164,1.952.635.635,0,0,0,.312.583v.271h-1.59a2.643,2.643,0,0,1-.222-1.233V42.5c0-.571-.3-.855-.916-.855H260.3Zm0-1.233h1.792a1.279,1.279,0,0,0,.785-.181.943.943,0,0,0,.271-.764.892.892,0,0,0-.271-.736,1.234,1.234,0,0,0-.785-.193H260.3Z" transform="translate(-196.873 -37.186)" fill="#08519c"/>
        <path id="Path_38478" data-name="Path 38478" d="M276.759,37.027A2.841,2.841,0,0,1,279.01,38a4.549,4.549,0,0,1,0,5.5,3.092,3.092,0,0,1-4.372.148q-.074-.068-.148-.148a4.512,4.512,0,0,1,0-5.473A2.853,2.853,0,0,1,276.759,37.027Zm0,1.27a1.593,1.593,0,0,0-1.393.756,3.027,3.027,0,0,0-.436,1.693,2.833,2.833,0,0,0,.563,1.861,1.642,1.642,0,0,0,2.313.21,1.758,1.758,0,0,0,.337-.382,3.027,3.027,0,0,0,.436-1.693,2.826,2.826,0,0,0-.555-1.861A1.573,1.573,0,0,0,276.759,38.3Z" transform="translate(-205.558 -37.025)" fill="#08519c"/>
        <path id="Path_38479" data-name="Path 38479" d="M292.169,41.94v2.568H290.76V37.3h3.032a2.154,2.154,0,0,1,1.718.653,2.338,2.338,0,0,1,.5,1.6,2.52,2.52,0,0,1-.633,1.833,1.911,1.911,0,0,1-1.438.575Zm0-1.233H293.5c.744,0,1.114-.357,1.114-1.077a.984.984,0,0,0-1.114-1.093h-1.315Z" transform="translate(-215.689 -37.184)" fill="#08519c"/>
        <path id="Path_38480" data-name="Path 38480" d="M305.569,41.415V43.26h3.908v1.233H304.09V37.31H309.3v1.233h-3.723v1.644h3.452v1.233h-3.456Z" transform="translate(-223.542 -37.193)" fill="#08519c"/>
        <path id="Path_38481" data-name="Path 38481" d="M319.3,41.65v2.876H317.82V37.3h3.867a1.864,1.864,0,0,1,1.4.493,2,2,0,0,1,.542,1.459,1.764,1.764,0,0,1-1.233,1.783,1.353,1.353,0,0,1,.846.674,9.737,9.737,0,0,1,.168,1.952.635.635,0,0,0,.312.583v.271h-1.59a2.644,2.644,0,0,1-.222-1.233V42.5c0-.571-.3-.855-.916-.855H319.3Zm0-1.233h1.792a1.279,1.279,0,0,0,.785-.181.943.943,0,0,0,.271-.764.892.892,0,0,0-.271-.736,1.234,1.234,0,0,0-.785-.193H319.3Z" transform="translate(-231.63 -37.186)" fill="#08519c"/>
        <path id="Path_38482" data-name="Path 38482" d="M335.778,38.553v5.97h-1.451v-5.97H332.17V37.32h5.67v1.233Z" transform="translate(-240.084 -37.199)" fill="#08519c"/>
        <path id="Path_38483" data-name="Path 38483" d="M350.575,41.88v2.667H349.1V41.88l-2.4-4.52h1.644l1.471,3.18,1.381-3.18h1.644l-2.264,4.52Z" transform="translate(-248.644 -37.222)" fill="#08519c"/>
        <path id="Path_38484" data-name="Path 38484" d="M109.71,65.93v4.729h-.62V65.93Z" transform="translate(-108.667 -54.053)" fill="#08519c"/>
        <path id="Path_38485" data-name="Path 38485" d="M113.044,69.071h.505v.575a1.273,1.273,0,0,1,1.13-.649,1.179,1.179,0,0,1,.793.247.814.814,0,0,1,.292.666v2.556h-.538V70.144a.638.638,0,0,0-.189-.481.725.725,0,0,0-.518-.177.822.822,0,0,0-.678.312,1.279,1.279,0,0,0-.255.822v1.865h-.546V69.071Z" transform="translate(-110.994 -55.859)" fill="#08519c"/>
        <path id="Path_38486" data-name="Path 38486" d="M123.945,70.011h-.6c-.021-.341-.247-.51-.686-.51a.971.971,0,0,0-.534.127.413.413,0,0,0-.2.345c0,.218.21.378.633.477l.526.119a1.561,1.561,0,0,1,.74.337.782.782,0,0,1,.226.6.894.894,0,0,1-.378.764,1.691,1.691,0,0,1-1.027.279,1.553,1.553,0,0,1-1.072-.329.981.981,0,0,1-.325-.719h.62a.778.778,0,0,0,.148.337.862.862,0,0,0,.674.21,1.111,1.111,0,0,0,.583-.136.4.4,0,0,0,.218-.362c0-.226-.177-.378-.526-.46l-.522-.111a2.11,2.11,0,0,1-.822-.329.756.756,0,0,1-.267-.629.868.868,0,0,1,.357-.731,1.552,1.552,0,0,1,.957-.271,1.417,1.417,0,0,1,.974.312A.9.9,0,0,1,123.945,70.011Z" transform="translate(-115.83 -55.87)" fill="#08519c"/>
        <path id="Path_38487" data-name="Path 38487" d="M132.519,72.574h-.538V72.04a1.324,1.324,0,0,1-1.833.394.233.233,0,0,0-.053-.033.818.818,0,0,1-.3-.666V69.18h.538v2.338a.612.612,0,0,0,.193.477.744.744,0,0,0,.518.177.818.818,0,0,0,.678-.308,1.279,1.279,0,0,0,.255-.822V69.18h.538v3.394h0Z" transform="translate(-120.866 -55.968)" fill="#08519c"/>
        <path id="Path_38488" data-name="Path 38488" d="M138.68,69.064h.505v.62a.988.988,0,0,1,.945-.7,1.513,1.513,0,0,1,.193,0v.555a1.331,1.331,0,0,0-.731.152,1.143,1.143,0,0,0-.366.986v1.763h-.546V69.064Z" transform="translate(-126.098 -55.851)" fill="#08519c"/>
        <path id="Path_38489" data-name="Path 38489" d="M146.8,71.992v.436a1.16,1.16,0,0,1-.353.078.5.5,0,0,1-.575-.415v-.066a1.356,1.356,0,0,1-1.167.5,1.161,1.161,0,0,1-.859-.3.919.919,0,0,1-.267-.682.856.856,0,0,1,.341-.736,2.443,2.443,0,0,1,.822-.284l1.118-.251v-.284c0-.341-.259-.51-.772-.51s-.781.2-.793.6h-.551a1.118,1.118,0,0,1,.226-.686,1.45,1.45,0,0,1,1.146-.411c.859,0,1.286.308,1.286.925v1.9c0,.168.074.251.218.251a.547.547,0,0,0,.14-.041l.045-.012h0Zm-.953-1.282-.879.226a2.135,2.135,0,0,0-.649.242.406.406,0,0,0-.177.349c0,.349.226.522.678.522a1.15,1.15,0,0,0,.822-.312.581.581,0,0,0,.214-.436Z" transform="translate(-128.983 -55.842)" fill="#08519c"/>
        <path id="Path_38490" data-name="Path 38490" d="M152.834,69.071h.505v.575a1.273,1.273,0,0,1,1.13-.649,1.179,1.179,0,0,1,.793.247.814.814,0,0,1,.292.666v2.556h-.538V70.144a.638.638,0,0,0-.189-.481.725.725,0,0,0-.518-.177.822.822,0,0,0-.678.312,1.279,1.279,0,0,0-.255.822v1.865h-.546V69.071h0Z" transform="translate(-134.434 -55.859)" fill="#08519c"/>
        <path id="Path_38491" data-name="Path 38491" d="M163.92,70.216h-.546a.739.739,0,0,0-.76-.719.311.311,0,0,0-.062,0,.828.828,0,0,0-.7.349,1.648,1.648,0,0,0-.255.97,1.314,1.314,0,0,0,.3.937.863.863,0,0,0,.678.284.777.777,0,0,0,.822-.727V71.3h.551a1.3,1.3,0,0,1-.46.957,1.436,1.436,0,0,1-.925.284,1.42,1.42,0,0,1-1.171-.53,1.885,1.885,0,0,1-.357-1.2,1.949,1.949,0,0,1,.473-1.389,1.378,1.378,0,0,1,1.052-.411,1.308,1.308,0,0,1,1.118.5,1.4,1.4,0,0,1,.242.7Z" transform="translate(-139.266 -55.869)" fill="#08519c"/>
        <path id="Path_38492" data-name="Path 38492" d="M172.24,70.906h-2.523a1.251,1.251,0,0,0,.185.694.935.935,0,0,0,.822.411.882.882,0,0,0,.9-.629h.547a1.353,1.353,0,0,1-.493.822,1.561,1.561,0,0,1-.974.3,1.431,1.431,0,0,1-1.192-.53,1.922,1.922,0,0,1-.366-1.233,1.883,1.883,0,0,1,.481-1.368,1.473,1.473,0,0,1,1.085-.411,1.573,1.573,0,0,1,.855.23,1.289,1.289,0,0,1,.53.633,2.9,2.9,0,0,1,.14,1.044v.041h0Zm-.588-.444a.984.984,0,0,0-.263-.719.887.887,0,0,0-.674-.275.919.919,0,0,0-.682.267,1.107,1.107,0,0,0-.3.723h1.915Z" transform="translate(-144.044 -55.836)" fill="#08519c"/>
        <path id="Path_38493" data-name="Path 38493" d="M187.752,65.906h.6v3.23a1.4,1.4,0,0,1-.567,1.187,2.076,2.076,0,0,1-1.274.37,1.948,1.948,0,0,1-1.4-.468,1.456,1.456,0,0,1-.411-1.089V65.89h.6v3.246a.932.932,0,0,0,.32.756,1.643,1.643,0,0,0,1.845-.037.945.945,0,0,0,.288-.719Z" transform="translate(-153.212 -54.029)" fill="#08519c"/>
        <path id="Path_38494" data-name="Path 38494" d="M195.934,69.071h.505v.575a1.273,1.273,0,0,1,1.13-.649,1.179,1.179,0,0,1,.793.247.814.814,0,0,1,.292.666v2.556h-.538V70.144a.638.638,0,0,0-.189-.481.725.725,0,0,0-.518-.177.822.822,0,0,0-.678.312,1.278,1.278,0,0,0-.255.822v1.865h-.546V69.071h0Z" transform="translate(-159.825 -55.859)" fill="#08519c"/>
        <path id="Path_38495" data-name="Path 38495" d="M207.155,65.93v4.729h-.546v-.468a1.092,1.092,0,0,1-1.011.546,1.359,1.359,0,0,1-1.159-.542,2.068,2.068,0,0,1-.353-1.257,1.847,1.847,0,0,1,.46-1.335,1.336,1.336,0,0,1,1.019-.411,1.182,1.182,0,0,1,1.044.514V65.93Zm-1.5,1.763a.878.878,0,0,0-.727.353,1.471,1.471,0,0,0-.275.937,1.326,1.326,0,0,0,.32.945.882.882,0,0,0,.694.3.828.828,0,0,0,.69-.337,1.766,1.766,0,0,0-.037-1.89.826.826,0,0,0-.662-.312h0Z" transform="translate(-164.627 -54.053)" fill="#08519c"/>
        <path id="Path_38496" data-name="Path 38496" d="M216.23,70.906h-2.523a1.251,1.251,0,0,0,.185.694.935.935,0,0,0,.822.411.882.882,0,0,0,.9-.629h.546a1.352,1.352,0,0,1-.493.822,1.56,1.56,0,0,1-.974.3,1.431,1.431,0,0,1-1.192-.53,1.922,1.922,0,0,1-.366-1.233,1.883,1.883,0,0,1,.481-1.368,1.472,1.472,0,0,1,1.085-.411,1.573,1.573,0,0,1,.855.23,1.289,1.289,0,0,1,.53.633,2.9,2.9,0,0,1,.14,1.044v.041h0Zm-.588-.444a.984.984,0,0,0-.263-.719.887.887,0,0,0-.674-.275.919.919,0,0,0-.682.267,1.107,1.107,0,0,0-.3.723h1.915Z" transform="translate(-169.959 -55.836)" fill="#08519c"/>
        <path id="Path_38497" data-name="Path 38497" d="M222.42,69.064h.505v.62a.987.987,0,0,1,.945-.7,1.513,1.513,0,0,1,.193,0v.555a1.331,1.331,0,0,0-.731.152,1.143,1.143,0,0,0-.366.986v1.763h-.546V69.064Z" transform="translate(-175.43 -55.851)" fill="#08519c"/>
        <path id="Path_38498" data-name="Path 38498" d="M230.349,72.568h-.62l-.7-2.671-.657,2.671h-.612l-.99-3.4h.6l.707,2.642.653-2.642h.666l.674,2.642.666-2.638h.612Z" transform="translate(-177.992 -55.962)" fill="#08519c"/>
        <path id="Path_38499" data-name="Path 38499" d="M239.25,69.064h.505v.62a.988.988,0,0,1,.945-.7,1.513,1.513,0,0,1,.193,0v.555a1.331,1.331,0,0,0-.731.152,1.143,1.143,0,0,0-.366.986v1.763h-.547V69.064Z" transform="translate(-185.344 -55.851)" fill="#08519c"/>
        <path id="Path_38500" data-name="Path 38500" d="M244.715,65.94a.335.335,0,0,1,.238.095.311.311,0,0,1,.1.226.33.33,0,0,1-.337.329.326.326,0,0,1-.325-.329.33.33,0,0,1,.325-.321h0Zm.259,1.327v3.4h-.538V67.271h.538Z" transform="translate(-188.372 -54.059)" fill="#08519c"/>
        <path id="Path_38501" data-name="Path 38501" d="M248.927,67.837v.436h-.7v2.26a.282.282,0,0,0,.3.284,2.045,2.045,0,0,0,.386-.062l.062.477a3.987,3.987,0,0,1-.625.074c-.44,0-.657-.177-.657-.534v-2.5h-.464v-.436h.464v-.694l.538-.242v.937h.694Z" transform="translate(-190.045 -54.624)" fill="#08519c"/>
        <path id="Path_38502" data-name="Path 38502" d="M253.065,65.94a.335.335,0,0,1,.238.095.311.311,0,0,1,.1.226.33.33,0,0,1-.337.329.326.326,0,0,1-.325-.329.33.33,0,0,1,.325-.321h0Zm.259,1.327v3.4h-.538V67.271h.538Z" transform="translate(-193.291 -54.059)" fill="#08519c"/>
        <path id="Path_38503" data-name="Path 38503" d="M256.42,69.071h.505v.575A1.277,1.277,0,0,1,258.064,69a1.179,1.179,0,0,1,.793.247.814.814,0,0,1,.292.666v2.556h-.538V70.144a.638.638,0,0,0-.189-.481.725.725,0,0,0-.518-.177.822.822,0,0,0-.678.312,1.278,1.278,0,0,0-.255.822v1.865h-.551Z" transform="translate(-195.459 -55.859)" fill="#08519c"/>
        <path id="Path_38504" data-name="Path 38504" d="M267.134,69.074h.505v2.839a2.452,2.452,0,0,1-.357,1.533,1.45,1.45,0,0,1-1.179.436,1.509,1.509,0,0,1-1-.3,1.016,1.016,0,0,1-.357-.719h.559a.577.577,0,0,0,.2.39.992.992,0,0,0,.625.177.87.87,0,0,0,.76-.316,1.646,1.646,0,0,0,.193-.925v-.218a1.227,1.227,0,0,1-1.027.575,1.3,1.3,0,0,1-.99-.436,1.823,1.823,0,0,1-.431-1.282,2.029,2.029,0,0,1,.452-1.389A1.305,1.305,0,0,1,266.094,69a1.215,1.215,0,0,1,1.044.583v-.51Zm-.986.411a.827.827,0,0,0-.694.345,1.549,1.549,0,0,0-.255.949,1.385,1.385,0,0,0,.292.957.814.814,0,0,0,.666.292.8.8,0,0,0,.682-.329,1.873,1.873,0,0,0-.037-1.911.8.8,0,0,0-.653-.292Z" transform="translate(-200.297 -55.861)" fill="#08519c"/>
        <path id="Path_38505" data-name="Path 38505" d="M282.247,69.242h-1.837l-.505,1.422h-.645l1.709-4.734h.785l1.672,4.729h-.674l-.505-1.418h0Zm-.173-.493-.731-2.149-.785,2.149Z" transform="translate(-208.914 -54.053)" fill="#08519c"/>
        <path id="Path_38506" data-name="Path 38506" d="M292.765,70.011h-.6c-.021-.341-.247-.51-.686-.51a.971.971,0,0,0-.534.127.413.413,0,0,0-.2.345c0,.218.21.378.633.477l.526.119a1.561,1.561,0,0,1,.74.337.782.782,0,0,1,.226.6.894.894,0,0,1-.378.764,1.691,1.691,0,0,1-1.027.279,1.553,1.553,0,0,1-1.072-.329.967.967,0,0,1-.325-.719h.62a.778.778,0,0,0,.148.337.862.862,0,0,0,.674.21,1.111,1.111,0,0,0,.583-.136.4.4,0,0,0,.218-.362c0-.226-.177-.378-.526-.46l-.522-.111a2.049,2.049,0,0,1-.822-.329.756.756,0,0,1-.267-.629.868.868,0,0,1,.357-.731,1.552,1.552,0,0,1,.957-.271,1.417,1.417,0,0,1,.974.312A.9.9,0,0,1,292.765,70.011Z" transform="translate(-215.283 -55.87)" fill="#08519c"/>
        <path id="Path_38507" data-name="Path 38507" d="M300.715,70.011h-.6c-.021-.341-.247-.51-.686-.51a.971.971,0,0,0-.534.127.413.413,0,0,0-.2.345c0,.218.21.378.633.477l.526.119a1.561,1.561,0,0,1,.74.337.782.782,0,0,1,.226.6.894.894,0,0,1-.378.764,1.691,1.691,0,0,1-1.027.279,1.553,1.553,0,0,1-1.072-.329.967.967,0,0,1-.325-.719h.62a.778.778,0,0,0,.148.337.862.862,0,0,0,.674.21,1.111,1.111,0,0,0,.583-.136.4.4,0,0,0,.218-.362c0-.226-.177-.378-.526-.46l-.518-.111a2.049,2.049,0,0,1-.822-.329.756.756,0,0,1-.267-.629.868.868,0,0,1,.357-.731,1.552,1.552,0,0,1,.957-.271,1.417,1.417,0,0,1,.974.312.9.9,0,0,1,.3.682Z" transform="translate(-219.966 -55.87)" fill="#08519c"/>
        <path id="Path_38508" data-name="Path 38508" d="M307.642,69a1.384,1.384,0,0,1,1.179.534,1.988,1.988,0,0,1,.362,1.257,1.822,1.822,0,0,1-.464,1.348,1.46,1.46,0,0,1-1.077.411,1.433,1.433,0,0,1-1.2-.522,1.94,1.94,0,0,1-.357-1.233,1.888,1.888,0,0,1,.473-1.381A1.476,1.476,0,0,1,307.642,69Zm0,.5a.863.863,0,0,0-.731.345,1.506,1.506,0,0,0-.267.949,1.371,1.371,0,0,0,.3.957.9.9,0,0,0,.69.292.861.861,0,0,0,.715-.329,1.809,1.809,0,0,0-.037-1.911A.828.828,0,0,0,307.642,69.493Z" transform="translate(-224.714 -55.858)" fill="#08519c"/>
        <path id="Path_38509" data-name="Path 38509" d="M317.7,70.216h-.546a.739.739,0,0,0-.76-.719.311.311,0,0,0-.062,0,.828.828,0,0,0-.7.349,1.647,1.647,0,0,0-.255.97,1.314,1.314,0,0,0,.3.937.863.863,0,0,0,.678.284.777.777,0,0,0,.822-.727V71.3h.551a1.29,1.29,0,0,1-.46.957,1.436,1.436,0,0,1-.925.284,1.42,1.42,0,0,1-1.171-.53,1.885,1.885,0,0,1-.357-1.2,1.949,1.949,0,0,1,.473-1.389,1.378,1.378,0,0,1,1.052-.411,1.308,1.308,0,0,1,1.118.5A1.4,1.4,0,0,1,317.7,70.216Z" transform="translate(-229.858 -55.869)" fill="#08519c"/>
        <path id="Path_38510" data-name="Path 38510" d="M323.575,65.94a.335.335,0,0,1,.238.095.311.311,0,0,1,.1.226.33.33,0,0,1-.337.329.326.326,0,0,1-.325-.329.33.33,0,0,1,.325-.321h0Zm.259,1.327v3.4H323.3V67.271h.538Z" transform="translate(-234.829 -54.059)" fill="#08519c"/>
        <path id="Path_38511" data-name="Path 38511" d="M329.724,71.992v.436a1.159,1.159,0,0,1-.353.078q-.536,0-.579-.481a1.356,1.356,0,0,1-1.167.5,1.161,1.161,0,0,1-.859-.3.919.919,0,0,1-.267-.682.856.856,0,0,1,.341-.736,2.443,2.443,0,0,1,.822-.284l1.118-.251v-.284c0-.341-.259-.51-.772-.51s-.781.2-.793.6h-.551a1.093,1.093,0,0,1,.226-.686,1.45,1.45,0,0,1,1.146-.411c.859,0,1.286.308,1.286.925v1.9c0,.168.074.251.222.251a.546.546,0,0,0,.14-.041l.041-.012h0Zm-.953-1.282-.879.226a2.135,2.135,0,0,0-.649.242.406.406,0,0,0-.177.349c0,.349.226.522.678.522a1.151,1.151,0,0,0,.822-.312.581.581,0,0,0,.214-.436Z" transform="translate(-236.742 -55.842)" fill="#08519c"/>
        <path id="Path_38512" data-name="Path 38512" d="M336.621,67.837v.436h-.7v2.26a.282.282,0,0,0,.3.284,2.045,2.045,0,0,0,.386-.062l.062.477a3.987,3.987,0,0,1-.625.074c-.44,0-.657-.177-.657-.534v-2.5h-.468v-.436h.464v-.694l.538-.242v.937Z" transform="translate(-241.704 -54.624)" fill="#08519c"/>
        <path id="Path_38513" data-name="Path 38513" d="M340.765,65.94a.335.335,0,0,1,.238.095.311.311,0,0,1,.1.226.33.33,0,0,1-.337.329.326.326,0,0,1-.325-.329.33.33,0,0,1,.325-.321h0Zm.259,1.327v3.4h-.538V67.271h.538Z" transform="translate(-244.956 -54.059)" fill="#08519c"/>
        <path id="Path_38514" data-name="Path 38514" d="M345.182,69a1.384,1.384,0,0,1,1.179.534,1.988,1.988,0,0,1,.362,1.257,1.822,1.822,0,0,1-.464,1.348,1.46,1.46,0,0,1-1.077.411,1.433,1.433,0,0,1-1.2-.522,1.94,1.94,0,0,1-.357-1.233,1.888,1.888,0,0,1,.473-1.381A1.476,1.476,0,0,1,345.182,69Zm0,.5a.863.863,0,0,0-.731.345,1.506,1.506,0,0,0-.267.949,1.371,1.371,0,0,0,.3.957.9.9,0,0,0,.69.292.861.861,0,0,0,.715-.329,1.809,1.809,0,0,0-.037-1.911A.828.828,0,0,0,345.182,69.493Z" transform="translate(-246.829 -55.858)" fill="#08519c"/>
        <path id="Path_38515" data-name="Path 38515" d="M352.994,69.071h.505v.575A1.273,1.273,0,0,1,354.63,69a1.179,1.179,0,0,1,.793.247.814.814,0,0,1,.292.666v2.556h-.538V70.144a.638.638,0,0,0-.189-.481.725.725,0,0,0-.518-.177.822.822,0,0,0-.678.312,1.279,1.279,0,0,0-.255.822v1.865h-.546V69.071h0Z" transform="translate(-252.349 -55.859)" fill="#08519c"/>
      </g>
      <g id="Layer_3" transform="translate(44.48 12.913)">
        <line id="Line_6" data-name="Line 6" x2="103.784" y2="0.07" fill="none" stroke="#08519c" stroke-miterlimit="10" stroke-width="2"/>
        <line id="Line_7" data-name="Line 7" x2="47.491" y2="0.033" transform="translate(56.239 12.179)" fill="none" stroke="#08519c" stroke-miterlimit="10" stroke-width="2"/>
        <line id="Line_8" data-name="Line 8" x2="21.983" y2="0.016" transform="translate(30.817 12.163)" fill="none" stroke="#08519c" stroke-miterlimit="10" stroke-width="2"/>
        <line id="Line_9" data-name="Line 9" x2="18.737" y2="0.012" transform="translate(8.871 12.15)" fill="none" stroke="#08519c" stroke-miterlimit="10" stroke-width="2"/>
      </g>
      <g id="Layer_4" transform="translate(0 0.5)">
        <path id="Path_38516" data-name="Path 38516" d="M109,.5" transform="translate(-64.212 -0.5)" fill="#fff" stroke="#08519c" stroke-miterlimit="10" stroke-width="1"/>
        <line id="Line_10" data-name="Line 10" x2="8.165" transform="translate(32.564 0)" fill="none" stroke="#08519c" stroke-miterlimit="10" stroke-width="1"/>
        <line id="Line_11" data-name="Line 11" x2="11.546" transform="translate(29.165 1.397)" fill="none" stroke="#08519c" stroke-miterlimit="10" stroke-width="1"/>
        <line id="Line_12" data-name="Line 12" x2="14.706" transform="translate(26.006 2.782)" fill="none" stroke="#08519c" stroke-miterlimit="10" stroke-width="1"/>
        <line id="Line_13" data-name="Line 13" x2="15.972" transform="translate(24.74 4.162)" fill="none" stroke="#08519c" stroke-miterlimit="10" stroke-width="1"/>
        <line id="Line_14" data-name="Line 14" x2="16.81" transform="translate(23.902 5.539)" fill="none" stroke="#08519c" stroke-miterlimit="10" stroke-width="1"/>
        <line id="Line_15" data-name="Line 15" x2="18.079" transform="translate(22.653 7.166)" fill="none" stroke="#08519c" stroke-miterlimit="10" stroke-width="1"/>
        <line id="Line_16" data-name="Line 16" x2="19.772" transform="translate(20.948 8.551)" fill="none" stroke="#08519c" stroke-miterlimit="10" stroke-width="1"/>
        <line id="Line_17" data-name="Line 17" x2="19.37" transform="translate(21.35 9.94)" fill="none" stroke="#08519c" stroke-miterlimit="10" stroke-width="1"/>
        <line id="Line_18" data-name="Line 18" x2="18.881" transform="translate(21.839 12.713)" fill="none" stroke="#08519c" stroke-miterlimit="10" stroke-width="1"/>
        <line id="Line_19" data-name="Line 19" x2="27.999" transform="translate(12.721 14.098)" fill="none" stroke="#08519c" stroke-miterlimit="10" stroke-width="1"/>
        <line id="Line_20" data-name="Line 20" x2="10.683" transform="translate(30.037 29.465)" fill="none" stroke="#08519c" stroke-miterlimit="10" stroke-width="1"/>
        <line id="Line_21" data-name="Line 21" x2="10.256" transform="translate(30.476 30.92)" fill="none" stroke="#08519c" stroke-miterlimit="10" stroke-width="1"/>
        <line id="Line_22" data-name="Line 22" x2="19.353" transform="translate(21.367 11.324)" fill="none" stroke="#08519c" stroke-miterlimit="10" stroke-width="1"/>
        <line id="Line_23" data-name="Line 23" x2="5.781" transform="translate(34.939 28.027)" fill="none" stroke="#08519c" stroke-miterlimit="10" stroke-width="1"/>
        <line id="Line_24" data-name="Line 24" x2="7.934" transform="translate(27.173 28.027)" fill="none" stroke="#08519c" stroke-miterlimit="10" stroke-width="1"/>
        <line id="Line_25" data-name="Line 25" x2="5.407" transform="translate(21.765 28.027)" fill="none" stroke="#08519c" stroke-miterlimit="10" stroke-width="1"/>
        <line id="Line_26" data-name="Line 26" x2="2.404" transform="translate(19.361 28.027)" fill="none" stroke="#08519c" stroke-miterlimit="10" stroke-width="1"/>
        <line id="Line_27" data-name="Line 27" x2="5.403" transform="translate(13.958 28.027)" fill="none" stroke="#08519c" stroke-miterlimit="10" stroke-width="1"/>
        <line id="Line_28" data-name="Line 28" x2="13.897" transform="translate(0.062 28.027)" fill="none" stroke="#08519c" stroke-miterlimit="10" stroke-width="1"/>
        <line id="Line_29" data-name="Line 29" x2="5.806" transform="translate(34.914 26.638)" fill="none" stroke="#08519c" stroke-miterlimit="10" stroke-width="1"/>
        <line id="Line_30" data-name="Line 30" x2="2.322" transform="translate(27.197 26.638)" fill="none" stroke="#08519c" stroke-miterlimit="10" stroke-width="1"/>
        <line id="Line_31" data-name="Line 31" x2="2.387" transform="translate(19.39 26.638)" fill="none" stroke="#08519c" stroke-miterlimit="10" stroke-width="1"/>
        <line id="Line_32" data-name="Line 32" x2="13.905" transform="translate(0.053 26.638)" fill="none" stroke="#08519c" stroke-miterlimit="10" stroke-width="1"/>
        <line id="Line_33" data-name="Line 33" x2="5.781" transform="translate(34.939 25.184)" fill="none" stroke="#08519c" stroke-miterlimit="10" stroke-width="1"/>
        <line id="Line_34" data-name="Line 34" x2="2.367" transform="translate(27.168 25.184)" fill="none" stroke="#08519c" stroke-miterlimit="10" stroke-width="1"/>
        <line id="Line_35" data-name="Line 35" x2="1.812" transform="translate(19.349 25.184)" fill="none" stroke="#08519c" stroke-miterlimit="10" stroke-width="1"/>
        <line id="Line_36" data-name="Line 36" x2="13.97" transform="translate(0 25.184)" fill="none" stroke="#08519c" stroke-miterlimit="10" stroke-width="1"/>
        <line id="Line_37" data-name="Line 37" x2="5.781" transform="translate(34.939 23.807)" fill="none" stroke="#08519c" stroke-miterlimit="10" stroke-width="1"/>
        <line id="Line_38" data-name="Line 38" x2="2.363" transform="translate(27.185 23.807)" fill="none" stroke="#08519c" stroke-miterlimit="10" stroke-width="1"/>
        <path id="Path_38517" data-name="Path 38517" d="M66.16,58.44" transform="translate(-38.975 -34.633)" fill="#fff" stroke="#08519c" stroke-miterlimit="10" stroke-width="1"/>
        <line id="Line_39" data-name="Line 39" x2="0.809" transform="translate(19.349 23.807)" fill="none" stroke="#08519c" stroke-miterlimit="10" stroke-width="1"/>
        <line id="Line_40" data-name="Line 40" x2="12.056" transform="translate(1.902 23.807)" fill="none" stroke="#08519c" stroke-miterlimit="10" stroke-width="1"/>
        <line id="Line_41" data-name="Line 41" x2="5.769" transform="translate(34.951 22.41)" fill="none" stroke="#08519c" stroke-miterlimit="10" stroke-width="1"/>
        <line id="Line_42" data-name="Line 42" x2="2.322" transform="translate(27.197 22.41)" fill="none" stroke="#08519c" stroke-miterlimit="10" stroke-width="1"/>
        <line id="Line_43" data-name="Line 43" x2="10.655" transform="translate(3.304 22.41)" fill="none" stroke="#08519c" stroke-miterlimit="10" stroke-width="1"/>
        <line id="Line_44" data-name="Line 44" x2="4.536" transform="translate(36.184 21.034)" fill="none" stroke="#08519c" stroke-miterlimit="10" stroke-width="1"/>
        <line id="Line_45" data-name="Line 45" x2="1.22" transform="translate(27.156 21.034)" fill="none" stroke="#08519c" stroke-miterlimit="10" stroke-width="1"/>
        <line id="Line_46" data-name="Line 46" x2="8.986" transform="translate(4.972 21.034)" fill="none" stroke="#08519c" stroke-miterlimit="10" stroke-width="1"/>
        <line id="Line_47" data-name="Line 47" x2="3.686" transform="translate(37.034 19.629)" fill="none" stroke="#08519c" stroke-miterlimit="10" stroke-width="1"/>
        <line id="Line_48" data-name="Line 48" x2="0.415" transform="translate(27.168 19.629)" fill="none" stroke="#08519c" stroke-miterlimit="10" stroke-width="1"/>
        <line id="Line_49" data-name="Line 49" x2="9.167" transform="translate(4.803 19.629)" fill="none" stroke="#08519c" stroke-miterlimit="10" stroke-width="1"/>
        <line id="Line_50" data-name="Line 50" x2="2.893" transform="translate(37.827 18.26)" fill="none" stroke="#08519c" stroke-miterlimit="10" stroke-width="1"/>
        <line id="Line_51" data-name="Line 51" x2="0.785" transform="translate(20.98 18.26)" fill="none" stroke="#08519c" stroke-miterlimit="10" stroke-width="1"/>
        <line id="Line_52" data-name="Line 52" x2="9.849" transform="translate(4.109 18.26)" fill="none" stroke="#08519c" stroke-miterlimit="10" stroke-width="1"/>
        <line id="Line_53" data-name="Line 53" x2="1.668" transform="translate(39.06 16.871)" fill="none" stroke="#08519c" stroke-miterlimit="10" stroke-width="1"/>
        <line id="Line_54" data-name="Line 54" x2="1.257" transform="translate(31.651 16.871)" fill="none" stroke="#08519c" stroke-miterlimit="10" stroke-width="1"/>
        <line id="Line_55" data-name="Line 55" x2="1.833" transform="translate(19.945 16.871)" fill="none" stroke="#08519c" stroke-miterlimit="10" stroke-width="1"/>
        <line id="Line_56" data-name="Line 56" x2="9.603" transform="translate(4.368 16.871)" fill="none" stroke="#08519c" stroke-miterlimit="10" stroke-width="1"/>
        <line id="Line_57" data-name="Line 57" x2="0.826" transform="translate(39.894 15.487)" fill="none" stroke="#08519c" stroke-miterlimit="10" stroke-width="1"/>
        <line id="Line_58" data-name="Line 58" x2="2.864" transform="translate(30.867 15.487)" fill="none" stroke="#08519c" stroke-miterlimit="10" stroke-width="1"/>
        <line id="Line_59" data-name="Line 59" x2="2.441" transform="translate(19.361 15.487)" fill="none" stroke="#08519c" stroke-miterlimit="10" stroke-width="1"/>
        <line id="Line_60" data-name="Line 60" x2="8.974" transform="translate(4.984 15.487)" fill="none" stroke="#08519c" stroke-miterlimit="10" stroke-width="1"/>
        <line id="Line_61" data-name="Line 61" x2="9.882" transform="translate(30.85 32.375)" fill="none" stroke="#08519c" stroke-miterlimit="10" stroke-width="1"/>
        <line id="Line_62" data-name="Line 62" x2="7.815" transform="translate(32.913 33.735)" fill="none" stroke="#08519c" stroke-miterlimit="10" stroke-width="1"/>
        <line id="Line_63" data-name="Line 63" x2="5.691" transform="translate(35.029 35.173)" fill="none" stroke="#08519c" stroke-miterlimit="10" stroke-width="1"/>
        <line id="Line_64" data-name="Line 64" x2="3.719" transform="translate(37.014 36.521)" fill="none" stroke="#08519c" stroke-miterlimit="10" stroke-width="1"/>
        <line id="Line_65" data-name="Line 65" x2="8.592" transform="translate(37.872 37.913)" fill="none" stroke="#08519c" stroke-miterlimit="10" stroke-width="1"/>
        <line id="Line_66" data-name="Line 66" x2="6.262" transform="translate(36.931 39.294)" fill="none" stroke="#08519c" stroke-miterlimit="10" stroke-width="1"/>
      </g>
    </g>
  </g>
</svg>
