<svg xmlns="http://www.w3.org/2000/svg" xmlns:xlink="http://www.w3.org/1999/xlink" width="192" height="148" viewBox="0 0 192 148">
  <defs>
    <clipPath id="clip-UOB">
      <rect width="192" height="148"/>
    </clipPath>
  </defs>
  <g id="UOB" clip-path="url(#clip-UOB)">
    <g id="UOB_Logo" transform="translate(-2067.829 14.999)">
      <path id="Path_1" data-name="Path 1" d="M2175.64,78.358c0,.952,1.308,1.07,2.022,1.07h.6c1.783-.117,1.783-.832,1.783-1.07V40.07c.117-.953-1.19-1.07-2.021-1.07h-.352c-.718,0-2.027.117-2.027,1.07Z" transform="translate(-53.674 0)" fill="#e1091d"/>
      <path id="Path_2" data-name="Path 2" d="M2108.93,78.358c0,.952,1.309,1.07,2.022,1.07h.595c1.784-.117,1.784-.832,1.784-1.07V40.07c0-.953-1.191-1.07-2.021-1.07h-.352c-.838,0-2.027.117-2.027,1.07Z" transform="translate(-10.863 0)" fill="#e1091d"/>
      <path id="Path_3" data-name="Path 3" d="M2131.17,78.358c0,.952,1.308,1.07,2.022,1.07h.713c1.784-.117,1.784-.832,1.784-1.07V40.07c0-.953-1.309-1.07-2.022-1.07h-.475c-.714,0-2.022.117-2.022,1.07Z" transform="translate(-25.135 0)" fill="#e1091d"/>
      <path id="Path_4" data-name="Path 4" d="M2153.4,78.358c0,.952,1.309,1.07,2.022,1.07h.595c1.784-.117,1.784-.832,1.784-1.07V40.07c0-.953-1.305-1.07-2.022-1.07h-.352c-.718,0-2.027.117-2.027,1.07Z" transform="translate(-39.402 0)" fill="#e1091d"/>
      <path id="Path_5" data-name="Path 5" d="M2093.073,89.12c-.953,0-1.07,1.308-1.07,2.022v.713c.117,1.784.832,1.784,1.07,1.784h38.288c.952,0,1.07-1.308,1.07-2.022v-.475c0-.713-.117-2.022-1.07-2.022Z" transform="translate(0 -32.164)" fill="#e1091d"/>
      <path id="Path_6" data-name="Path 6" d="M2332.617,76.666h0c-6.3,0-8.684-3.449-8.684-12.366,0-8.8,2.259-12.009,8.566-12.009h.235c6.183,0,8.566,3.211,8.566,12.009-.117,8.918-2.5,12.366-8.684,12.366m0-29.37c-10.7,0-15.577,5.351-15.577,17.122,0,11.653,4.995,17.242,15.22,17.36h.475c10.345,0,15.338-5.708,15.338-17.36,0-11.891-4.755-17.122-15.457-17.122" transform="translate(-144.418 -5.324)" fill="#002469"/>
      <path id="Path_7" data-name="Path 7" d="M2233,79.519c2.141,1.665,5.113,2.379,9.869,2.379h.235c4.756,0,7.729-.713,9.989-2.379,3.091-2.377,3.689-5.225,3.689-10.582V49.556a1.2,1.2,0,0,0-.352-.952c-.481-.479-1.551-.713-3.335-.713a4.853,4.853,0,0,0-3.21.713,1.2,1.2,0,0,0-.352.952V69.77c0,3.329,0,4.043-1.546,5.351a8.682,8.682,0,0,1-5.113,1.308,7.9,7.9,0,0,1-5.114-1.314c-1.545-1.189-1.545-1.9-1.545-5.231V49.556a1.2,1.2,0,0,0-.352-.952,7.6,7.6,0,0,0-6.429,0,1.2,1.2,0,0,0-.352.952V68.937c.235,5.351.713,8.2,3.924,10.582" transform="translate(-87.969 -5.68)" fill="#002469"/>
      <path id="Path_8" data-name="Path 8" d="M2428.913,77.4h-7.61V67.3h8.085c4.519,0,5.351,1.9,5.351,5.113.117,4.281-1.427,4.994-5.826,4.994M2421.3,53.264h7.728c4.043,0,4.281,2.022,4.281,4.638,0,3.211-1.427,4.518-4.875,4.518H2421.3Zm16.053-2.854c-1.783-1.308-3.924-1.784-8.085-1.784h-13.794a1.191,1.191,0,0,0-1.189,1.189V81.207a1.191,1.191,0,0,0,1.189,1.189h14.507c3.924,0,6.658-.117,9.036-1.9,2.615-2.022,3.092-5.231,3.092-7.61a8.465,8.465,0,0,0-2.972-7.015,11.573,11.573,0,0,0-2.735-1.308l-.595-.235.595-.235c2.854-1.308,3.806-3.211,3.806-6.9-.117-1.9-.476-5.113-2.854-6.778" transform="translate(-206.828 -6.178)" fill="#002469"/>
    </g>
  </g>
</svg>
